<svg width="199" height="185" viewBox="0 0 199 185" fill="none" xmlns="http://www.w3.org/2000/svg">
<g filter="url(#filter0_d_367_28330)">
<g clip-path="url(#clip0_367_28330)">
<path d="M142.108 109.271V111.709H123.861V109.271H142.108Z" fill="#DADBD8"/>
<path d="M126.347 109.372C126.41 109.372 126.462 109.884 126.462 110.514C126.462 111.145 126.41 111.656 126.347 111.656C126.284 111.656 126.232 111.145 126.232 110.514C126.232 109.884 126.284 109.372 126.347 109.372Z" fill="#FAFAF9"/>
<path d="M125.951 109.323C126.014 109.323 126.065 109.834 126.065 110.465C126.065 111.095 126.014 111.607 125.951 111.607C125.887 111.607 125.836 111.095 125.836 110.465C125.836 109.834 125.887 109.323 125.951 109.323Z" fill="#FAFAF9"/>
<path d="M140.697 109.372C140.76 109.372 140.812 109.884 140.812 110.514C140.812 111.145 140.76 111.656 140.697 111.656C140.634 111.656 140.582 111.145 140.582 110.514C140.582 109.884 140.634 109.372 140.697 109.372Z" fill="#FAFAF9"/>
<path d="M140.3 109.323C140.364 109.323 140.415 109.834 140.415 110.465C140.415 111.095 140.364 111.607 140.3 111.607C140.237 111.607 140.186 111.095 140.186 110.465C140.186 109.834 140.237 109.323 140.3 109.323Z" fill="#FAFAF9"/>
<path d="M137.916 110.564C137.916 110.627 135.826 110.679 133.249 110.679C130.671 110.679 128.581 110.627 128.581 110.564C128.581 110.501 130.671 110.449 133.249 110.449C135.826 110.449 137.916 110.501 137.916 110.564Z" fill="#FAFAF9"/>
<path d="M142.03 120.246V125.121H123.783V120.246H142.03Z" fill="#DADBD8"/>
<path d="M142.263 123.75C142.264 123.754 142.231 123.773 142.164 123.807C142.097 123.841 141.995 123.889 141.86 123.946C141.589 124.057 141.179 124.214 140.623 124.3C140.076 124.377 139.342 124.399 138.616 124.015C138.259 123.824 137.92 123.535 137.662 123.15C137.41 122.768 137.248 122.267 137.33 121.747C137.374 121.488 137.482 121.231 137.666 121.02C137.844 120.809 138.13 120.653 138.435 120.671C138.741 120.685 139.017 120.86 139.208 121.088C139.402 121.317 139.534 121.61 139.562 121.919C139.634 122.538 139.373 123.179 138.933 123.647C138.499 124.133 137.85 124.429 137.179 124.504C136.504 124.584 135.806 124.478 135.143 124.251C134.481 124.023 133.827 123.652 133.365 123.057C133.138 122.761 132.975 122.393 132.951 122.004C132.917 121.616 133.041 121.198 133.339 120.909C133.487 120.765 133.695 120.668 133.91 120.658C134.125 120.648 134.333 120.718 134.507 120.826C134.858 121.045 135.083 121.418 135.178 121.81C135.349 122.607 135.034 123.437 134.458 123.958C133.881 124.482 133.125 124.715 132.404 124.794C131.678 124.866 130.947 124.812 130.275 124.584C129.605 124.361 129.001 123.92 128.654 123.325C128.302 122.743 128.186 122.006 128.452 121.388C128.576 121.082 128.859 120.81 129.196 120.758C129.525 120.696 129.861 120.788 130.115 120.98C130.63 121.389 130.716 122.089 130.549 122.623C130.381 123.171 130.012 123.591 129.63 123.918C128.849 124.576 127.926 124.862 127.128 124.89C126.32 124.918 125.642 124.696 125.145 124.439C124.645 124.179 124.316 123.884 124.111 123.673C124.011 123.565 123.937 123.481 123.893 123.42C123.847 123.36 123.825 123.328 123.828 123.325C123.852 123.293 124.194 123.857 125.185 124.36C125.677 124.599 126.342 124.801 127.122 124.761C127.894 124.722 128.783 124.434 129.524 123.794C129.889 123.477 130.232 123.072 130.38 122.572C130.529 122.089 130.432 121.464 130 121.132C129.789 120.972 129.499 120.898 129.233 120.951C128.962 120.996 128.748 121.202 128.636 121.468C128.406 122.01 128.507 122.681 128.836 123.216C129.158 123.762 129.711 124.166 130.346 124.377C130.98 124.59 131.685 124.642 132.38 124.57C133.07 124.494 133.779 124.269 134.305 123.788C134.824 123.323 135.106 122.559 134.954 121.862C134.871 121.52 134.676 121.2 134.385 121.021C134.101 120.832 133.728 120.838 133.495 121.075C133.259 121.303 133.146 121.655 133.177 121.989C133.197 122.327 133.338 122.651 133.545 122.921C133.963 123.465 134.584 123.826 135.214 124.044C135.852 124.264 136.519 124.367 137.154 124.294C137.788 124.224 138.38 123.956 138.785 123.509C139.196 123.078 139.434 122.492 139.372 121.94C139.328 121.404 138.919 120.881 138.426 120.848C138.183 120.832 137.95 120.951 137.793 121.133C137.633 121.314 137.531 121.543 137.49 121.773C137.411 122.244 137.552 122.708 137.785 123.071C138.022 123.436 138.341 123.716 138.677 123.903C139.358 124.278 140.074 124.275 140.611 124.211C141.158 124.14 141.569 123.999 141.843 123.903C142.118 123.803 142.259 123.742 142.263 123.75Z" fill="#FAFAF9"/>
<path d="M142.029 111.779V120.237H125.412V111.779H142.029Z" fill="#E7E8E5"/>
<path d="M128.174 112.07C128.237 112.07 128.288 113.903 128.288 116.163C128.288 118.425 128.237 120.257 128.174 120.257C128.11 120.257 128.059 118.425 128.059 116.163C128.059 113.903 128.11 112.07 128.174 112.07Z" fill="#DADBD8"/>
<path d="M129.432 111.965C129.496 111.965 129.547 113.774 129.547 116.006C129.547 118.238 129.496 120.047 129.432 120.047C129.369 120.047 129.317 118.238 129.317 116.006C129.317 113.774 129.369 111.965 129.432 111.965Z" fill="#DADBD8"/>
<path d="M140.151 111.693C140.215 111.693 140.266 113.598 140.266 115.949C140.266 118.3 140.215 120.204 140.151 120.204C140.088 120.204 140.036 118.3 140.036 115.949C140.036 113.598 140.088 111.693 140.151 111.693Z" fill="#DADBD8"/>
<path d="M138.67 111.807C138.734 111.807 138.785 113.663 138.785 115.953C138.785 118.244 138.734 120.1 138.67 120.1C138.607 120.1 138.556 118.244 138.556 115.953C138.556 113.663 138.607 111.807 138.67 111.807Z" fill="#DADBD8"/>
<path d="M26.4766 89.7845H138.501V15.4767H26.4766V89.7845Z" fill="#DADBD8"/>
<path d="M27.8037 173.84C27.3159 173.422 26.2279 172.097 27.0668 170.555C27.3745 169.99 28.028 169.71 28.6191 169.461C29.2111 169.212 29.8325 168.995 30.3216 168.579C31.2446 167.794 31.4994 166.489 32.1122 165.442C32.8152 164.239 34.128 163.338 35.5149 163.401C37.1033 163.473 38.4278 164.771 39.0284 166.25C39.629 167.729 39.6498 169.371 39.6624 170.969C39.6689 171.852 39.6299 172.848 38.9815 173.444C38.3835 173.994 37.4834 174.001 36.6732 173.976C33.7799 173.887 30.8866 173.798 27.9933 173.709" fill="#F3F2F1"/>
<path d="M43.3775 156.79H41.0805L41.6434 150.2H44.1509L43.3775 156.79ZM41.4169 173.5H39.6527L40.1809 167.319H42.142L41.4169 173.5ZM24.1782 150.2C24.2684 150.677 24.685 153.27 25.2431 156.79H22.9522L21.8469 150.2H24.1782ZM38.0497 156.79L38.2688 150.2H41.416L40.8531 156.79H38.0497ZM37.4946 173.5L37.6999 167.319H39.9535L39.4253 173.5H37.4946ZM26.9026 167.319C27.2381 169.457 27.5688 171.567 27.8713 173.5H25.7548L24.718 167.319H26.9026ZM26.6344 165.612H24.432L23.2386 158.496H25.5135C25.8611 160.695 26.2465 163.143 26.6344 165.612ZM29.6827 158.496L30.2355 165.612H26.864C26.7503 164.89 26.6358 164.159 26.5208 163.429C26.2565 161.749 25.9917 160.07 25.7431 158.496H29.6827ZM29.5499 156.79H25.4727C25.3286 155.88 25.1915 155.018 25.0678 154.243C24.6425 151.579 24.4828 150.577 24.3939 150.2H29.0378L29.5499 156.79ZM33.6305 156.79H29.7768L29.2652 150.2H33.4791L33.6305 156.79ZM33.8575 156.79L33.7056 150.2H38.0418L37.8227 156.79H33.8575ZM34.0606 165.612L33.8965 158.496H37.7663L37.5298 165.612H34.0606ZM30.4625 165.612L29.9096 158.496H33.67L33.8341 165.612H30.4625ZM30.8488 173.5H28.1004C27.8396 171.831 27.4994 169.662 27.1318 167.319H30.3683L30.8488 173.5ZM30.5953 167.319H33.8731L34.0155 173.5H31.0757L30.5953 167.319ZM34.242 173.5L34.0996 167.319H37.4733L37.2681 173.5H34.242ZM40.9347 158.496H43.177L42.3425 165.612H40.3267L40.9347 158.496ZM40.0993 165.612H37.7567L37.9932 158.496H40.7073L40.0993 165.612ZM44.4052 149.973H21.5791L25.691 174.49C25.8707 175.561 26.6457 176.386 27.64 176.673L27.7198 176.695C27.7875 176.712 27.853 176.735 27.9229 176.747C28.0735 176.779 28.2293 176.795 28.3873 176.801L28.3912 176.824L28.5023 176.807H28.5031H38.6763C38.8677 176.807 39.0543 176.787 39.2353 176.751C40.4365 176.565 41.3982 175.601 41.5444 174.355L43.5268 157.462L43.6162 156.79H43.6054L44.3904 150.1L44.4052 149.973Z" fill="#DADBD8"/>
<path d="M217.403 88.8837C214.359 92.1237 209.23 92.2973 205.971 89.2708C202.711 86.2443 202.537 81.1468 205.581 77.9068C208.626 74.6672 213.755 74.494 217.014 77.5201C220.273 80.5462 220.448 85.6441 217.403 88.8837ZM223.04 71.1073C216.224 64.7778 205.497 65.1411 199.13 71.9167C192.762 78.6923 193.128 89.3537 199.944 95.6832C206.761 102.013 217.487 101.65 223.855 94.8738C230.222 88.0986 229.857 77.4368 223.04 71.1073Z" fill="#F3F2F1"/>
<path d="M199.13 71.9166C205.498 65.141 216.224 64.7782 223.04 71.1072L217.014 77.5201C213.755 74.494 208.626 74.6676 205.581 77.9067C202.537 81.1468 202.711 86.2442 205.971 89.2707L199.944 95.6831C193.128 89.3536 192.762 78.6927 199.13 71.9166Z" fill="#E7E8E5"/>
<path d="M39.5933 112.425H-5.53674C-6.31095 112.425 -6.93848 111.797 -6.93848 111.022V100.325C-6.93848 99.5503 -6.31095 98.9228 -5.53674 98.9228H39.5933C40.368 98.9228 40.9955 99.5503 40.9955 100.325V111.022C40.9955 111.797 40.368 112.425 39.5933 112.425Z" fill="#DADBD8"/>
<path d="M3.16538 107.926C2.15639 109.19 0.318083 109.393 -0.940437 108.379C-2.19896 107.365 -2.40119 105.518 -1.39177 104.254C-0.382783 102.99 1.45552 102.787 2.71404 103.801C3.97213 104.814 4.17436 106.661 3.16538 107.926Z" fill="#F3F2F1"/>
<path d="M36.2771 104.641C36.2771 104.704 29.8435 104.754 21.9088 104.754C13.9714 104.754 7.53906 104.704 7.53906 104.641C7.53906 104.578 13.9714 104.528 21.9088 104.528C29.8435 104.528 36.2771 104.578 36.2771 104.641Z" fill="#FAFAF9"/>
<path d="M36.4037 107.086C36.4037 107.148 29.97 107.199 22.0357 107.199C14.0984 107.199 7.66602 107.148 7.66602 107.086C7.66602 107.023 14.0984 106.973 22.0357 106.973C29.97 106.973 36.4037 107.023 36.4037 107.086Z" fill="#FAFAF9"/>
<path d="M187.774 108.865L186.896 177H226.098V109.795L187.774 108.865Z" fill="#F3F2F1"/>
<path d="M189.007 110.092V124.028H207.576V110.751L189.007 110.092Z" fill="#DADBD8"/>
<path d="M189.007 158.927V172.863H207.576V159.585L189.007 158.927Z" fill="#DADBD8"/>
<path d="M189.007 125.802V139.738H207.576V126.46L189.007 125.802Z" fill="#DADBD8"/>
<path d="M188.765 142.488V156.424H207.333V142.488H188.765Z" fill="#DADBD8"/>
<path d="M227.571 176.409C227.571 176.472 163.297 176.522 84.03 176.522C4.73545 176.522 -59.5244 176.472 -59.5244 176.409C-59.5244 176.347 4.73545 176.296 84.03 176.296C163.297 176.296 227.571 176.347 227.571 176.409Z" fill="#17282F"/>
<path d="M19.7607 93.4369H135.774V17.3416H19.7607V93.4369Z" fill="#FAFAF9"/>
<path d="M135.774 93.4368C135.773 92.7043 135.739 63.7531 135.684 17.3415L135.774 17.4313C103.937 17.4378 63.5633 17.4461 19.7694 17.4548H19.7603L19.8736 17.3415C19.8701 44.4031 19.8671 70.1564 19.864 93.4368L19.7603 93.3327C88.0216 93.3943 134.844 93.4359 135.774 93.4368C134.845 93.4377 88.0216 93.4793 19.7603 93.5405H19.6566V93.4368C19.654 70.1564 19.6505 44.4031 19.6475 17.3415V17.2286H19.7603H19.7694C63.5633 17.2373 103.937 17.2456 135.774 17.2516H135.864V17.3415C135.809 63.7531 135.775 92.7047 135.774 93.4368Z" fill="#17282F"/>
<path d="M55.2162 59.3631L66.6271 59.5206C66.5399 65.6015 61.416 70.5579 55.2162 70.5579L55.1494 70.5574L55.2162 59.3631Z" fill="#33535F"/>
<path d="M74.0848 74.8139C74.0848 74.8208 74.0006 74.8274 73.8409 74.8334C73.6604 74.8382 73.4286 74.8443 73.1431 74.8517C72.5138 74.859 71.6476 74.869 70.5935 74.8812L70.5614 74.8816L70.5405 74.8556C69.5224 73.5732 68.2088 71.918 66.7763 70.1127C65.6636 68.694 64.6229 67.3674 63.7419 66.2434L63.8005 66.272C62.4266 66.2594 61.2761 66.2486 60.4424 66.2408C60.0545 66.2321 59.7416 66.2252 59.5029 66.2199C59.2863 66.2126 59.1709 66.2052 59.1709 66.1969C59.1709 66.1891 59.2863 66.1813 59.5029 66.1739C59.7416 66.1692 60.0545 66.1618 60.4424 66.1535C61.2761 66.1457 62.4266 66.1349 63.8005 66.1223L63.8365 66.1219L63.8595 66.1509C64.7461 67.2702 65.7938 68.5916 66.9134 70.0046C68.3342 71.8195 69.637 73.4829 70.6464 74.7722L70.5935 74.7466C71.6476 74.7588 72.5138 74.7688 73.1431 74.7761C73.4291 74.7835 73.6604 74.7896 73.8409 74.7944C74.0006 74.8004 74.0848 74.807 74.0848 74.8139Z" fill="#17282F"/>
<path d="M78.177 76.1291C78.177 76.1777 76.524 76.2168 74.4852 76.2168C72.446 76.2168 70.793 76.1777 70.793 76.1291C70.793 76.081 72.446 76.0419 74.4852 76.0419C76.524 76.0419 78.177 76.081 78.177 76.1291Z" fill="#17282F"/>
<path d="M78.177 77.4966C78.177 77.5448 76.524 77.5839 74.4852 77.5839C72.446 77.5839 70.793 77.5448 70.793 77.4966C70.793 77.4485 72.446 77.409 74.4852 77.409C76.524 77.409 78.177 77.4485 78.177 77.4966Z" fill="#17282F"/>
<path d="M53.4112 57.7396L53.2511 68.9326C47.0518 68.8471 41.999 63.8208 41.999 57.7396C41.999 51.5984 47.1507 46.5448 53.4112 46.5448C59.6717 46.5448 64.8234 51.5984 64.8234 57.7396H53.4112Z" fill="#F99624"/>
<path d="M48.9561 54.0786C48.957 54.086 48.8884 54.1016 48.7582 54.1251C48.6029 54.1498 48.4154 54.1797 48.1906 54.2157C47.6668 54.2895 46.9707 54.3872 46.1405 54.5035L46.1067 54.5078L46.0815 54.4835C45.3012 53.7245 44.3612 52.8101 43.347 51.8233C42.0338 50.5352 40.8517 49.3618 40.0024 48.5064C39.5971 48.0933 39.2608 47.75 39.0025 47.487C38.7695 47.2435 38.6441 47.1047 38.6528 47.096C38.6614 47.0873 38.8025 47.2097 39.0503 47.4384C39.3185 47.691 39.6678 48.0208 40.0888 48.4183C40.9606 49.2511 42.1562 50.4102 43.4699 51.6987C44.4758 52.6938 45.408 53.6156 46.1818 54.3811L46.1227 54.3611C46.9555 54.2696 47.6546 54.1923 48.1802 54.1346C48.4072 54.1138 48.5964 54.0964 48.7526 54.0825C48.885 54.073 48.9553 54.0712 48.9561 54.0786Z" fill="#17282F"/>
<path d="M35.762 46.6034C35.762 46.6516 34.109 46.6907 32.0702 46.6907C30.0305 46.6907 28.3779 46.6516 28.3779 46.6034C28.3779 46.5553 30.0305 46.5158 32.0702 46.5158C34.109 46.5158 35.762 46.5553 35.762 46.6034Z" fill="#17282F"/>
<path d="M35.762 47.9704C35.762 48.0186 34.109 48.0581 32.0702 48.0581C30.0305 48.0581 28.3779 48.0186 28.3779 47.9704C28.3779 47.9223 30.0305 47.8832 32.0702 47.8832C34.109 47.8832 35.762 47.9223 35.762 47.9704Z" fill="#17282F"/>
<path d="M93.3328 35.6245L93.2876 28.6683C91.2393 28.6805 89.151 29.4907 87.5488 30.9059C85.6623 32.5732 84.4541 35.0803 84.7835 38.1102C84.8195 38.4414 84.8716 38.7777 84.9458 39.121L84.9506 39.1453L84.9515 39.1448L93.3328 37.2592V35.6245Z" fill="#F03D5F"/>
<path d="M84.9514 39.1453L84.9466 39.121C84.8724 38.7777 84.8203 38.4414 84.7843 38.1102C84.7478 37.773 84.73 37.4419 84.7305 37.1182C84.7322 34.5326 85.8731 32.3879 87.5496 30.9059C89.1518 29.4907 91.2401 28.6805 93.2884 28.6683L93.3336 35.6245V37.2592L84.9522 39.1448L84.9514 39.1453Z" fill="#FFB45E"/>
<path d="M101.973 33.4832C100.801 31.0364 98.4934 29.0766 95.2073 28.7472C95.1197 28.7385 95.0311 28.7303 94.9422 28.7242C94.8858 28.7199 94.8302 28.7142 94.7729 28.7112C94.6072 28.7021 94.4383 28.6973 94.2682 28.6964L94.2452 28.696H94.2439L94.2227 28.6951V28.696V28.6964L94.2682 35.6526L94.2786 37.2874L102.663 39.1165L102.673 39.1183C102.801 38.5311 102.863 37.9253 102.859 37.3151C102.853 36.0115 102.55 34.6887 101.973 33.4832Z" fill="#F03D5F"/>
<path d="M102.673 39.1183L102.663 39.1165L94.2786 37.2874L94.2682 35.6526L94.2227 28.6964V28.696V28.6951L94.2439 28.696H94.2452L94.2682 28.6964C94.4383 28.6973 94.6072 28.7021 94.7729 28.7112C94.8302 28.7142 94.8858 28.7199 94.9422 28.7242C95.0311 28.7303 95.1197 28.7385 95.2073 28.7472C98.4934 29.0766 100.801 31.0364 101.973 33.4832C102.55 34.6887 102.853 36.0115 102.859 37.3151C102.859 37.3294 102.859 37.3438 102.859 37.3581C102.86 37.9535 102.798 38.545 102.673 39.1183Z" fill="#D27100"/>
<path d="M93.7821 38.1275L85.4004 40.0135C86.2605 43.8507 89.685 46.7192 93.7821 46.7192C97.8992 46.7192 101.338 43.8225 102.176 39.9567L93.7925 38.1275" fill="#F99624"/>
<path d="M126.408 36.875C126.408 36.9375 122.075 36.9883 116.731 36.9883C111.384 36.9883 107.052 36.9375 107.052 36.875C107.052 36.813 111.384 36.7622 116.731 36.7622C122.075 36.7622 126.408 36.813 126.408 36.875Z" fill="#17282F"/>
<path d="M126.408 34.6688C126.408 34.7313 122.075 34.7816 116.731 34.7816C111.384 34.7816 107.052 34.7313 107.052 34.6688C107.052 34.6063 111.384 34.5559 116.731 34.5559C122.075 34.5559 126.408 34.6063 126.408 34.6688Z" fill="#17282F"/>
<path d="M126.408 32.4624C126.408 32.5249 122.075 32.5757 116.731 32.5757C111.384 32.5757 107.052 32.5249 107.052 32.4624C107.052 32.3999 111.384 32.3492 116.731 32.3492C122.075 32.3492 126.408 32.3999 126.408 32.4624Z" fill="#17282F"/>
<path d="M126.408 38.9277C126.408 38.9902 122.075 39.041 116.731 39.041C111.384 39.041 107.052 38.9902 107.052 38.9277C107.052 38.8657 111.384 38.8149 116.731 38.8149C122.075 38.8149 126.408 38.8657 126.408 38.9277Z" fill="#17282F"/>
<path d="M120.415 41.1619C120.415 41.2244 117.438 41.2751 113.768 41.2751C110.096 41.2751 107.12 41.2244 107.12 41.1619C107.12 41.0994 110.096 41.049 113.768 41.049C117.438 41.049 120.415 41.0994 120.415 41.1619Z" fill="#17282F"/>
<path d="M88.7456 79.3997H86.752V57.133H88.7456V79.3997Z" fill="#F99624"/>
<path d="M90.6016 79.3997H92.5951V64.6958H90.6016V79.3997Z" fill="#F03D5F"/>
<path d="M96.4434 79.5129H94.4502V59.9009H96.4434V79.5129Z" fill="#F99624"/>
<path d="M98.2998 79.3997H100.294V57.9931H98.2998V79.3997Z" fill="#F03D5F"/>
<path d="M104.142 79.3997H102.148V65.1484H104.142V79.3997Z" fill="#F99624"/>
<path d="M105.997 79.3997H107.991V67.9433H105.997V79.3997Z" fill="#F03D5F"/>
<path d="M111.84 79.3997H109.847V59.4183H111.84V79.3997Z" fill="#F99624"/>
<path d="M113.696 79.3997H115.69V63.0211H113.696V79.3997Z" fill="#F03D5F"/>
<path d="M119.539 79.3997H117.545V60.1421H119.539V79.3997Z" fill="#F99624"/>
<path d="M121.395 79.3997H123.388V66.2798H121.395V79.3997Z" fill="#F03D5F"/>
<path d="M127.238 79.3997H125.244V63.7836H127.238V79.3997Z" fill="#F99624"/>
<path d="M128.051 80.9507C128.051 80.9958 118.594 81.0327 106.93 81.0327C95.263 81.0327 85.8076 80.9958 85.8076 80.9507C85.8076 80.9051 95.263 80.8687 106.93 80.8687C118.594 80.8687 128.051 80.9051 128.051 80.9507Z" fill="#17282F"/>
<path d="M89.5955 82.703C89.5955 82.7482 88.9333 82.785 88.1161 82.785C87.299 82.785 86.6367 82.7482 86.6367 82.703C86.6367 82.6579 87.299 82.621 88.1161 82.621C88.9333 82.621 89.5955 82.6579 89.5955 82.703Z" fill="#17282F"/>
<path d="M94.5037 82.7924C94.5037 82.8375 93.7121 82.8744 92.7357 82.8744C91.7588 82.8744 90.9668 82.8375 90.9668 82.7924C90.9668 82.7472 91.7588 82.7103 92.7357 82.7103C93.7121 82.7103 94.5037 82.7472 94.5037 82.7924Z" fill="#17282F"/>
<path d="M98.6898 82.7924C98.6898 82.8375 97.8978 82.8744 96.9213 82.8744C95.9449 82.8744 95.1533 82.8375 95.1533 82.7924C95.1533 82.7472 95.9449 82.7103 96.9213 82.7103C97.8978 82.7103 98.6898 82.7472 98.6898 82.7924Z" fill="#17282F"/>
<path d="M102.876 82.7924C102.876 82.8375 102.084 82.8744 101.108 82.8744C100.131 82.8744 99.3389 82.8375 99.3389 82.7924C99.3389 82.7472 100.131 82.7103 101.108 82.7103C102.084 82.7103 102.876 82.7472 102.876 82.7924Z" fill="#17282F"/>
<path d="M107.063 82.7924C107.063 82.8375 106.271 82.8744 105.295 82.8744C104.318 82.8744 103.526 82.8375 103.526 82.7924C103.526 82.7472 104.318 82.7103 105.295 82.7103C106.271 82.7103 107.063 82.7472 107.063 82.7924Z" fill="#17282F"/>
<path d="M111.249 82.7924C111.249 82.8375 110.457 82.8744 109.48 82.8744C108.503 82.8744 107.712 82.8375 107.712 82.7924C107.712 82.7472 108.503 82.7103 109.48 82.7103C110.457 82.7103 111.249 82.7472 111.249 82.7924Z" fill="#17282F"/>
<path d="M115.435 82.7924C115.435 82.8375 114.643 82.8744 113.667 82.8744C112.69 82.8744 111.898 82.8375 111.898 82.7924C111.898 82.7472 112.69 82.7103 113.667 82.7103C114.643 82.7103 115.435 82.7472 115.435 82.7924Z" fill="#17282F"/>
<path d="M119.621 82.7924C119.621 82.8375 118.829 82.8744 117.853 82.8744C116.876 82.8744 116.084 82.8375 116.084 82.7924C116.084 82.7472 116.876 82.7103 117.853 82.7103C118.829 82.7103 119.621 82.7472 119.621 82.7924Z" fill="#17282F"/>
<path d="M123.807 82.7924C123.807 82.8375 123.015 82.8744 122.039 82.8744C121.062 82.8744 120.271 82.8375 120.271 82.7924C120.271 82.7472 121.062 82.7103 122.039 82.7103C123.015 82.7103 123.807 82.7472 123.807 82.7924Z" fill="#17282F"/>
<path d="M127.993 82.7924C127.993 82.8375 127.201 82.8744 126.225 82.8744C125.248 82.8744 124.456 82.8375 124.456 82.7924C124.456 82.7472 125.248 82.7103 126.225 82.7103C127.201 82.7103 127.993 82.7472 127.993 82.7924Z" fill="#17282F"/>
<path d="M90.6016 79.3997H92.5951V64.6958H90.6016V79.3997Z" fill="#FFB45E"/>
<path d="M98.2998 79.3997H100.294V57.9931H98.2998V79.3997Z" fill="#FFB45E"/>
<path d="M105.997 79.3997H107.991V67.9433H105.997V79.3997Z" fill="#FFB45E"/>
<path d="M113.696 79.3997H115.69V63.0211H113.696V79.3997Z" fill="#FFB45E"/>
<path d="M121.395 79.3997H123.388V66.2798H121.395V79.3997Z" fill="#FFB45E"/>
<path d="M33.8556 31.6445C33.8556 32.7042 32.9968 33.5635 31.9366 33.5635C30.8769 33.5635 30.0176 32.7042 30.0176 31.6445C30.0176 30.5847 30.8769 29.7254 31.9366 29.7254C32.9968 29.7254 33.8556 30.5847 33.8556 31.6445Z" fill="#F03D5F"/>
<path d="M66.8511 30.1307C66.8511 30.1932 60.3802 30.2435 52.3998 30.2435C44.4165 30.2435 37.9473 30.1932 37.9473 30.1307C37.9473 30.0682 44.4165 30.0174 52.3998 30.0174C60.3802 30.0174 66.8511 30.0682 66.8511 30.1307Z" fill="#F03D5F"/>
<path d="M49.5499 32.4516C49.5499 32.4672 49.3906 32.4816 49.1024 32.4954C48.8143 32.5089 48.3968 32.5215 47.8817 32.5315C46.8506 32.5519 45.4267 32.5645 43.854 32.5645C42.2804 32.5645 40.8565 32.5519 39.8258 32.5315C39.3103 32.5215 38.8932 32.5089 38.6051 32.4954C38.3165 32.4816 38.1572 32.4672 38.1572 32.4516C38.1572 32.436 38.3165 32.4212 38.6051 32.4074C38.8932 32.3939 39.3103 32.3818 39.8258 32.3718C40.8565 32.3509 42.2804 32.3384 43.854 32.3384C45.4267 32.3384 46.8506 32.3509 47.8817 32.3718C48.3968 32.3818 48.8143 32.3939 49.1024 32.4074C49.3906 32.4212 49.5499 32.436 49.5499 32.4516Z" fill="#F03D5F"/>
<path d="M17.3987 93.5259H-43.3193V24.23H17.3987V93.5259Z" fill="#FAFAF9"/>
<path d="M17.3985 93.5259C17.3985 93.5259 17.3946 93.413 17.3928 93.1965C17.3915 92.9769 17.3894 92.6558 17.3872 92.2335C17.3846 91.3829 17.3802 90.1279 17.3755 88.4935C17.3694 85.2218 17.3603 80.4342 17.349 74.3547C17.3368 62.2048 17.3195 44.8936 17.2987 24.23L17.3985 24.3298C-0.482059 24.3337 -21.2566 24.3385 -43.3134 24.3429H-43.3196L-43.2066 24.23C-43.2131 49.7784 -43.219 73.6022 -43.2241 93.5259L-43.3196 93.4304C-25.0529 93.4508 -9.88494 93.4677 0.720043 93.4794C6.02709 93.4903 10.1915 93.4985 13.0331 93.5042C14.4527 93.5094 15.5411 93.5124 16.2788 93.515C17.014 93.5189 17.3985 93.5259 17.3985 93.5259C17.3985 93.5259 17.0279 93.5328 16.2997 93.5363C15.5658 93.5389 14.4839 93.5428 13.0722 93.5471C10.2353 93.5532 6.0783 93.5614 0.780369 93.5723C-9.83937 93.584 -25.0278 93.6009 -43.3196 93.6213H-43.4152V93.5259C-43.4202 73.6022 -43.4262 49.7784 -43.4326 24.23V24.1172H-43.3196H-43.3134C-21.2566 24.1215 -0.482059 24.1263 17.3985 24.1302H17.4983V24.23C17.4775 44.9201 17.4601 62.2538 17.4479 74.4189C17.4367 80.4889 17.4276 85.2687 17.4215 88.5352C17.4163 90.1613 17.4124 91.4098 17.4098 92.2556C17.4072 92.6731 17.4054 92.9903 17.4041 93.2073C17.4024 93.4204 17.3985 93.5259 17.3985 93.5259Z" fill="#17282F"/>
<path d="M12.1793 59.6135C12.1593 59.6548 11.5066 59.2763 10.2269 58.8714C8.95662 58.4774 6.99767 58.0972 4.62731 58.4561C3.45211 58.644 2.17841 58.9999 0.934204 59.6426C-0.317806 60.2701 -1.51123 61.201 -2.69684 62.2543C-3.88722 63.3049 -5.06937 64.4979 -6.43291 65.6011C-7.79645 66.686 -9.36092 67.7128 -11.2014 68.1819C-12.1149 68.4171 -13.0709 68.4779 -13.9853 68.3494C-14.9019 68.2244 -15.7668 67.925 -16.5653 67.5531C-18.1645 66.7993 -19.5324 65.8089 -20.8869 64.9831C-22.2318 64.1407 -23.5838 63.4729 -24.9515 63.1608C-26.3105 62.8306 -27.6304 62.7633 -28.8177 62.8644C-31.2071 63.0732 -33.015 63.9194 -34.1549 64.6021C-35.2998 65.3021 -35.8401 65.8285 -35.8706 65.7916C-35.8803 65.7812 -35.747 65.6505 -35.4828 65.4105C-35.2232 65.1662 -34.8087 64.8368 -34.2405 64.4654C-33.1118 63.7311 -31.2885 62.8241 -28.8452 62.5724C-27.6312 62.45 -26.2751 62.5003 -24.8711 62.8262C-23.459 63.1322 -22.0474 63.8166 -20.6875 64.6567C-19.3145 65.4826 -17.9466 66.4599 -16.3947 67.1838C-14.8585 67.9237 -13.0514 68.2531 -11.3029 67.7796C-9.55404 67.3356 -8.02819 66.3453 -6.68722 65.2838C-5.34538 64.2058 -4.15759 63.0202 -2.94985 61.9674C-1.74601 60.9124 -0.51873 59.9694 0.779278 59.3358C2.06688 58.6874 3.37921 58.3394 4.58522 58.1658C7.01763 57.836 9.00566 58.2721 10.2772 58.7183C10.9195 58.94 11.3973 59.1674 11.7115 59.3354C12.0252 59.5055 12.1858 59.601 12.1793 59.6135Z" fill="#F99624"/>
<path d="M2.59766 60.7218V82.8809H7.75976V60.7218H2.59766Z" fill="#F99624"/>
<path d="M8.77784 84.5266C8.77784 84.6411 7.36612 84.734 5.62546 84.734C3.8835 84.734 2.47266 84.6411 2.47266 84.5266C2.47266 84.412 3.8835 84.3191 5.62546 84.3191C7.36612 84.3191 8.77784 84.412 8.77784 84.5266Z" fill="#17282F"/>
<path d="M8.77732 51.8519H-33.4092V34.3325H8.77732V51.8519Z" fill="#DADBD8"/>
<path d="M208.142 87.886H141.467V11.7907H208.142V87.886Z" fill="#FAFAF9"/>
<path d="M208.142 87.886C208.142 87.886 208.138 87.7623 208.137 87.5249C208.135 87.2845 208.134 86.9317 208.131 86.4678C208.128 85.5347 208.124 84.1568 208.119 82.3619C208.113 78.7699 208.104 73.5128 208.093 66.837C208.081 53.495 208.063 34.4835 208.042 11.7906L208.142 11.8905C188.508 11.8944 165.695 11.8991 141.473 11.9039H141.467L141.579 11.7906C141.573 39.8457 141.567 66.0077 141.562 87.886L141.467 87.7905C161.527 87.8109 178.185 87.8278 189.83 87.8395C195.658 87.8504 200.231 87.8586 203.351 87.8643C204.91 87.869 206.105 87.873 206.914 87.8756C207.721 87.879 208.142 87.886 208.142 87.886C208.142 87.886 207.735 87.8929 206.935 87.8964C206.13 87.899 204.94 87.9029 203.39 87.9077C200.275 87.9133 195.709 87.9216 189.891 87.9324C178.23 87.9441 161.552 87.961 141.467 87.9814H141.371V87.886C141.366 66.0077 141.36 39.8457 141.354 11.7906V11.6778H141.467H141.473C165.695 11.6826 188.508 11.6874 208.142 11.6908H208.242V11.7906C208.221 34.51 208.204 53.5436 208.192 66.9012C208.181 73.5675 208.172 78.8172 208.165 82.4036C208.16 84.1898 208.156 85.5616 208.154 86.4899C208.151 86.949 208.149 87.2984 208.148 87.5358C208.146 87.7697 208.142 87.886 208.142 87.886Z" fill="#17282F"/>
<path d="M200.815 61.2048H146.801V17.8749H200.815V61.2048Z" fill="#DADBD8"/>
<path d="M152.348 54.0122H150.575V53.5014H152.348V54.0122Z" fill="#17282F"/>
<path d="M156.853 56.7432H154.586V56.2324H156.853V56.7432Z" fill="#17282F"/>
<path d="M164.744 56.7432H162.478V56.2324H164.744V56.7432Z" fill="#17282F"/>
<path d="M172.636 56.7432H170.369V56.2324H172.636V56.7432Z" fill="#17282F"/>
<path d="M180.529 56.7432H178.262V56.2324H180.529V56.7432Z" fill="#17282F"/>
<path d="M188.42 56.7432H186.153V56.2324H188.42V56.7432Z" fill="#17282F"/>
<path d="M196.312 56.7432H194.045V56.2324H196.312V56.7432Z" fill="#17282F"/>
<path d="M152.348 47.1893H150.575V46.6785H152.348V47.1893Z" fill="#17282F"/>
<path d="M152.348 34.3485H150.575V33.8377H152.348V34.3485Z" fill="#17282F"/>
<path d="M152.348 27.8953H150.575V27.3845H152.348V27.8953Z" fill="#17282F"/>
<path d="M152.438 40.7687H150.665V40.2583H152.438V40.7687Z" fill="#17282F"/>
<path d="M196.249 54.0122C196.249 54.0161 196.184 54.0195 196.058 54.0234C195.923 54.0265 195.737 54.03 195.5 54.0347C194.999 54.0395 194.278 54.0469 193.356 54.056C191.482 54.0647 188.789 54.0768 185.467 54.092C178.796 54.1007 169.599 54.112 159.44 54.125C157.327 54.1246 155.256 54.1241 153.273 54.1233H153.161V54.0117C153.176 45.3119 153.19 37.6549 153.199 32.1603C153.214 29.4268 153.225 27.2313 153.233 25.7076C153.241 24.9599 153.247 24.3779 153.252 23.9704C153.257 23.7808 153.26 23.6319 153.262 23.5208C153.266 23.4197 153.269 23.3681 153.273 23.3681C153.276 23.3681 153.28 23.4197 153.283 23.5208C153.285 23.6319 153.289 23.7808 153.293 23.9704C153.297 24.3779 153.304 24.9599 153.312 25.7076C153.32 27.2313 153.331 29.4268 153.346 32.1603C153.356 37.6549 153.369 45.3119 153.384 54.0117L153.273 53.9006C155.256 53.9002 157.327 53.8998 159.44 53.8989C169.599 53.9119 178.796 53.9236 185.467 53.9319C188.789 53.9471 191.482 53.9597 193.356 53.9679C194.278 53.977 194.999 53.9844 195.5 53.9892C195.737 53.9939 195.923 53.9978 196.058 54.0004C196.184 54.0044 196.249 54.0083 196.249 54.0122Z" fill="#17282F"/>
<path d="M196.748 40.5135C196.748 40.576 187.399 40.6263 175.869 40.6263C164.335 40.6263 154.987 40.576 154.987 40.5135C154.987 40.4514 164.335 40.4007 175.869 40.4007C187.399 40.4007 196.748 40.4514 196.748 40.5135Z" fill="#17282F"/>
<path d="M196.748 34.0929C196.748 34.1554 187.399 34.2062 175.869 34.2062C164.335 34.2062 154.987 34.1554 154.987 34.0929C154.987 34.0304 164.335 33.9801 175.869 33.9801C187.399 33.9801 196.748 34.0304 196.748 34.0929Z" fill="#17282F"/>
<path d="M196.748 27.6397C196.748 27.7022 187.399 27.7529 175.869 27.7529C164.335 27.7529 154.987 27.7022 154.987 27.6397C154.987 27.5776 164.335 27.5268 175.869 27.5268C187.399 27.5268 196.748 27.5776 196.748 27.6397Z" fill="#17282F"/>
<path d="M196.748 46.934C196.748 46.9961 187.399 47.0469 175.869 47.0469C164.335 47.0469 154.987 46.9961 154.987 46.934C154.987 46.8715 164.335 46.8208 175.869 46.8208C187.399 46.8208 196.748 46.8715 196.748 46.934Z" fill="#17282F"/>
<path d="M155.418 52.6305C155.418 51.5555 155.418 46.9342 155.418 46.9342L158.969 41.4223L161.377 43.2706L166.323 35.5893L169.24 37.6428L173.297 30.5565L176.594 33.2423L181.539 23.8416L186.865 34.3485L191.177 29.0914L196.249 27.6398V52.6305H155.418Z" fill="#33535F"/>
<path d="M196.748 25.6174C196.748 25.6204 196.718 25.623 196.658 25.626C196.589 25.6282 196.503 25.6313 196.394 25.6343C196.148 25.6382 195.805 25.6438 195.365 25.6508C194.451 25.6577 193.135 25.6677 191.473 25.6803L191.522 25.6556C190.389 27.141 188.979 28.9876 187.358 31.111L187.331 31.1462H187.287C184.255 31.1518 180.704 31.1583 176.844 31.1653L176.938 31.1128C175.563 33.4011 174.081 35.87 172.549 38.4222C171.052 40.9079 169.605 43.3135 168.237 45.5857L168.152 45.7268L168.056 45.5935C165.995 42.7567 164.089 40.1329 162.403 37.8133L162.555 37.8085C160.406 41.1497 158.631 43.9076 157.386 45.8422C156.768 46.7922 156.282 47.5395 155.942 48.0611C155.779 48.3063 155.651 48.4986 155.557 48.6396C155.469 48.7689 155.418 48.8323 155.418 48.8323C155.418 48.8323 155.453 48.7589 155.534 48.6244C155.622 48.4799 155.742 48.2833 155.896 48.0316C156.225 47.5035 156.697 46.747 157.298 45.7858C158.527 43.8407 160.278 41.0681 162.4 37.7096L162.472 37.5954L162.552 37.7048C164.245 40.0183 166.161 42.6356 168.231 45.4655L168.05 45.4738C169.416 43.1998 170.861 40.7929 172.355 38.3059C173.89 35.755 175.375 33.2878 176.751 31.0008L176.783 30.9483H176.844C180.704 30.9552 184.255 30.9617 187.287 30.9674L187.216 31.0025C188.854 28.8913 190.278 27.0555 191.423 25.5792L191.442 25.5544H191.473C193.135 25.5675 194.451 25.577 195.365 25.5839C195.805 25.5909 196.148 25.5965 196.394 25.6004C196.503 25.6039 196.589 25.6065 196.658 25.6087C196.718 25.6117 196.748 25.6143 196.748 25.6174Z" fill="#F03D5F"/>
<path d="M164.189 39.5848C164.189 39.7979 164.01 39.9706 163.789 39.9706C163.567 39.9706 163.388 39.7979 163.388 39.5848C163.388 39.3717 163.567 39.199 163.789 39.199C164.01 39.199 164.189 39.3717 164.189 39.5848Z" fill="#F03D5F"/>
<path d="M176.234 32.739C176.234 32.952 176.054 33.1248 175.833 33.1248C175.612 33.1248 175.433 32.952 175.433 32.739C175.433 32.5259 175.612 32.3532 175.833 32.3532C176.054 32.3532 176.234 32.5259 176.234 32.739Z" fill="#F03D5F"/>
<path d="M185.597 31.0568C185.597 31.2699 185.418 31.4426 185.196 31.4426C184.975 31.4426 184.796 31.2699 184.796 31.0568C184.796 30.8437 184.975 30.671 185.196 30.671C185.418 30.671 185.597 30.8437 185.597 31.0568Z" fill="#F03D5F"/>
<path d="M198.38 67.6468C198.38 67.7093 186.982 67.7596 172.926 67.7596C158.865 67.7596 147.47 67.7093 147.47 67.6468C147.47 67.5843 158.865 67.534 172.926 67.534C186.982 67.534 198.38 67.5843 198.38 67.6468Z" fill="#17282F"/>
<path d="M198.38 70.399C198.38 70.4615 186.982 70.5118 172.926 70.5118C158.865 70.5118 147.47 70.4615 147.47 70.399C147.47 70.337 158.865 70.2862 172.926 70.2862C186.982 70.2862 198.38 70.337 198.38 70.399Z" fill="#17282F"/>
<path d="M198.38 73.1513C198.38 73.2138 186.982 73.2645 172.926 73.2645C158.865 73.2645 147.47 73.2138 147.47 73.1513C147.47 73.0892 158.865 73.0384 172.926 73.0384C186.982 73.0384 198.38 73.0892 198.38 73.1513Z" fill="#17282F"/>
<path d="M198.38 75.904C198.38 75.9665 186.982 76.0168 172.926 76.0168C158.865 76.0168 147.47 75.9665 147.47 75.904C147.47 75.8415 158.865 75.7907 172.926 75.7907C186.982 75.7907 198.38 75.8415 198.38 75.904Z" fill="#17282F"/>
<path d="M178.275 74.8234C179.668 72.4856 180.075 69.3666 180.433 66.6686C180.602 65.3992 180.897 63.5913 180.006 62.7941C179.051 61.94 178.963 60.6277 177.866 59.9676C176.768 59.308 175.277 59.249 174.237 59.9976" fill="#17282F"/>
<path d="M174.412 83.1084C172.286 83.2716 170.451 81.6355 170.369 79.5051C170.29 77.459 170.221 75.3911 170.221 75.3911C170.221 75.3911 167.121 75.1003 166.897 72.0326C166.672 68.9644 166.774 61.8815 166.774 61.8815C170.236 60.1374 174.37 60.4034 177.579 62.5763L177.388 73.374V79.1831C177.367 81.1317 176.355 82.9596 174.412 83.1084Z" fill="#F8A58D"/>
<path d="M169.954 68.2869C170.484 67.6307 171.344 67.3699 172.051 67.829C172.758 68.2882 173.03 69.3089 172.645 70.0588C172.374 70.5882 171.756 71.0678 171.14 71.1971C170.561 71.3182 170.15 71.8776 170.217 72.4656C170.306 73.2355 171.587 73.5249 172.165 74.1624C173.064 75.1536 175.038 75.5733 176.367 75.7304C177.674 75.8849 177.516 75.8975 178.276 74.8234C178.83 74.0422 179.003 73.2897 179.023 72.3328C179.07 70.0705 179.117 67.8082 179.163 65.5463C179.18 64.7309 179.196 63.9051 179.008 63.1113C178.821 62.3176 178.406 61.546 177.724 61.0977C176.978 60.6064 176.033 60.5648 175.183 60.2896C174.12 59.9459 173.218 59.2412 172.224 58.7325C171.229 58.2239 170.01 57.9201 169.012 58.4214C168.296 58.7807 167.815 59.4959 167.119 59.8921C166.127 60.4563 164.777 60.3282 164.295 61.7864C164.128 62.2907 164.141 62.844 164.312 63.3465C164.984 65.3315 167.443 66.1318 169.213 65.2738C169.248 65.6101 168.917 66.3583 169.271 67.4202C169.384 67.7596 169.425 68.2773 169.954 68.2869Z" fill="#17282F"/>
<path d="M170.503 70.2019C170.527 70.1824 170.631 70.3642 170.887 70.3482C171.131 70.3369 171.45 70.0466 171.46 69.6478C171.491 69.2442 171.182 68.9647 170.934 68.884C170.681 68.7911 170.5 68.8388 170.492 68.8033C170.479 68.7824 170.661 68.6652 170.978 68.7308C171.132 68.7633 171.312 68.8471 171.46 69.0077C171.609 69.1656 171.701 69.4099 171.686 69.659C171.672 70.1698 171.233 70.5404 170.888 70.5079C170.714 70.4975 170.598 70.4081 170.545 70.3356C170.49 70.2605 170.491 70.2067 170.503 70.2019Z" fill="#F68260"/>
<path d="M173.696 60.9514C173.688 60.9449 173.763 60.8338 173.953 60.6914C174.141 60.5491 174.46 60.3902 174.884 60.3291C175.307 60.27 175.834 60.3156 176.353 60.5526C176.873 60.7895 177.348 61.2239 177.707 61.7625C178.428 62.8596 178.564 64.0577 178.66 64.8688C178.74 65.6951 178.769 66.2046 178.741 66.209C178.707 66.2137 178.622 65.7064 178.501 64.8897C178.366 64.0855 178.203 62.9255 177.519 61.8879C177.179 61.378 176.738 60.9683 176.264 60.7409C175.79 60.5122 175.3 60.4519 174.903 60.4879C174.088 60.5638 173.719 60.9943 173.696 60.9514Z" fill="#33535F"/>
<path d="M165.056 64.09C165.055 64.0965 165.015 64.0978 164.94 64.0809C164.866 64.0644 164.756 64.0271 164.634 63.9433C164.513 63.8609 164.378 63.732 164.278 63.5432C164.178 63.3583 164.12 63.1005 164.182 62.8332C164.24 62.5681 164.407 62.296 164.68 62.1167C164.958 61.9275 165.324 61.9214 165.65 61.9267C165.984 61.9345 166.31 61.9089 166.576 61.6923C166.849 61.4879 167.056 61.1737 167.326 60.8834C167.869 60.2958 168.573 59.9382 169.237 59.7807C169.903 59.6157 170.533 59.634 171.037 59.7407C171.542 59.8466 171.926 60.0219 172.168 60.1756C172.41 60.3283 172.526 60.4368 172.518 60.4464C172.495 60.4937 171.995 60.0623 171.008 59.8978C170.521 59.8149 169.919 59.8149 169.288 59.9829C168.659 60.143 168 60.4872 167.493 61.0361C167.237 61.3074 167.023 61.6346 166.709 61.8694C166.554 61.9865 166.369 62.0733 166.181 62.1067C165.994 62.1419 165.814 62.138 165.647 62.135C165.314 62.1237 165.008 62.128 164.779 62.2751C164.549 62.4175 164.396 62.6462 164.338 62.871C164.215 63.3358 164.486 63.7124 164.687 63.873C164.899 64.0462 165.064 64.0683 165.056 64.09Z" fill="#33535F"/>
<path d="M173.265 72.6258C173.257 72.6071 173.42 72.5498 173.67 72.381C173.918 72.2152 174.259 71.9214 174.507 71.4484C174.755 70.9841 174.866 70.317 174.648 69.65C174.541 69.3185 174.357 68.9965 174.09 68.7278C173.825 68.457 173.491 68.234 173.131 68.0265C172.773 67.8182 172.408 67.6251 172.075 67.3977C171.741 67.1712 171.449 66.896 171.226 66.5975C170.777 65.9973 170.565 65.3363 170.508 64.7813C170.44 64.2228 170.526 63.768 170.608 63.4703C170.65 63.3205 170.694 63.2086 170.731 63.1348C170.765 63.0606 170.786 63.0237 170.793 63.0263C170.847 63.0345 170.513 63.6825 170.666 64.7605C170.741 65.2899 170.959 65.9127 171.391 66.4703C171.607 66.7494 171.879 66.9998 172.199 67.2146C172.521 67.4303 172.88 67.6195 173.246 67.8317C173.61 68.0422 173.963 68.2774 174.249 68.5733C174.538 68.868 174.738 69.2269 174.847 69.588C175.073 70.3144 174.932 71.0383 174.647 71.5244C174.364 72.0195 173.987 72.3077 173.716 72.4561C173.441 72.6075 173.268 72.6362 173.265 72.6258Z" fill="#33535F"/>
<path d="M178.584 68.1241C178.587 68.1393 178.447 68.1701 178.189 68.2122C177.931 68.2448 177.553 68.2764 177.086 68.2456C176.158 68.2018 174.852 67.8828 173.664 67.0691C172.479 66.2654 171.658 65.1688 171.419 64.2444C171.294 63.7848 171.313 63.3886 171.373 63.1326C171.436 62.8748 171.516 62.7502 171.525 62.7546C171.571 62.7581 171.289 63.3231 171.572 64.1997C171.835 65.0633 172.642 66.1031 173.791 66.8821C174.94 67.6693 176.195 68.003 177.099 68.0864C178.01 68.1858 178.58 68.0777 178.584 68.1241Z" fill="#33535F"/>
<path d="M179.072 66.022C180.136 64.8247 181.703 64.0166 183.302 64.1064C184.901 64.1963 186.46 65.3007 186.851 66.8539C187.144 68.023 186.786 69.2416 186.635 70.4377C186.483 71.6333 186.63 73.0311 187.605 73.7393C188.193 74.1664 188.953 74.244 189.66 74.4163C190.366 74.5882 191.12 74.941 191.363 75.6262C191.641 76.4117 191.07 77.3035 190.307 77.6355C189.542 77.968 188.661 77.8668 187.852 77.6698C188.221 78.5495 187.767 79.6487 186.942 80.1291C186.117 80.6095 185.031 80.5128 184.217 80.015C183.402 79.5168 182.844 78.6675 182.552 77.7588C182.027 78.6823 180.646 78.8767 179.761 78.2886C178.877 77.7011 178.496 76.5367 178.633 75.4835C178.77 74.4302 179.349 73.4807 180.047 72.6796C180.398 72.276 180.786 71.8949 181.034 71.4219C181.283 70.9484 181.37 70.3478 181.096 69.8887C180.823 69.4295 180.112 69.2399 179.731 69.6148" fill="#17282F"/>
<path d="M180.919 69.2412C180.938 69.2581 180.565 69.4404 179.997 69.2308C179.442 69.0429 178.793 68.388 178.659 67.4841C178.588 67.0388 178.651 66.5966 178.805 66.2386C178.956 65.8788 179.178 65.6006 179.392 65.4058C179.828 65.013 180.196 64.9349 180.199 64.9562C180.218 64.9922 179.884 65.1228 179.505 65.5199C179.127 65.9005 178.74 66.6244 178.882 67.4489C179.006 68.2709 179.566 68.8741 180.058 69.0828C180.556 69.3115 180.916 69.2013 180.919 69.2412Z" fill="#F03D5F"/>
<path d="M170.118 75.3398C170.117 75.365 169.844 75.3793 169.418 75.2708C168.994 75.1649 168.428 74.9063 167.922 74.4614C167.417 74.014 167.09 73.4841 166.932 73.0766C166.771 72.6678 166.752 72.3949 166.776 72.3905C166.812 72.3814 166.887 72.6366 167.077 73.0102C167.266 73.3848 167.594 73.8686 168.071 74.2918C168.55 74.7127 169.071 74.9779 169.466 75.1185C169.86 75.2608 170.123 75.3029 170.118 75.3398Z" fill="#F68260"/>
<path d="M181.931 77.8551C181.929 77.8625 181.878 77.8551 181.78 77.833C181.684 77.8087 181.544 77.7545 181.381 77.6551C181.06 77.452 180.671 77.0011 180.509 76.3293C180.43 75.9973 180.398 75.6128 180.472 75.2136C180.536 74.816 180.683 74.409 180.877 74.0067C181.263 73.1973 181.873 72.4292 182.324 71.5365C182.548 71.09 182.717 70.6299 182.778 70.1708C182.84 69.7117 182.786 69.2608 182.631 68.8658C182.323 68.0673 181.681 67.5331 181.074 67.3265C180.459 67.1113 179.909 67.1573 179.555 67.2319C179.195 67.3075 179.012 67.409 179.003 67.3886C179 67.3817 179.043 67.3535 179.13 67.3048C179.218 67.2601 179.351 67.1976 179.534 67.1469C179.893 67.0432 180.466 66.9668 181.125 67.1751C181.778 67.3747 182.483 67.9337 182.824 68.7895C182.998 69.2126 183.061 69.7069 182.998 70.199C182.935 70.6924 182.757 71.1772 182.527 71.6376C182.059 72.5607 181.446 73.3193 181.063 74.0987C180.667 74.869 180.511 75.6588 180.665 76.2937C180.799 76.9317 181.143 77.3682 181.431 77.5826C181.727 77.7953 181.938 77.8321 181.931 77.8551Z" fill="#33535F"/>
<path d="M186.56 80.0996C186.56 80.1074 186.494 80.1109 186.367 80.1104C186.24 80.1052 186.051 80.0848 185.819 80.0128C185.355 79.8783 184.716 79.4929 184.221 78.7673C183.712 78.0486 183.473 76.9819 183.532 75.8432C183.573 74.6958 183.908 73.4833 184.123 72.2104C184.227 71.5729 184.289 70.9432 184.252 70.3417C184.216 69.7407 184.085 69.1661 183.859 68.6648C183.634 68.1645 183.312 67.7366 182.925 67.4428C182.544 67.1377 182.11 66.9672 181.706 66.8673C180.887 66.676 180.188 66.7784 179.731 66.8743C179.268 66.9771 179.023 67.0795 179.016 67.0605C179.013 67.0535 179.071 67.0227 179.187 66.9706C179.302 66.9199 179.477 66.8526 179.71 66.7888C180.169 66.6651 180.882 66.5327 181.741 66.7115C182.165 66.8057 182.627 66.9758 183.039 67.2939C183.457 67.6008 183.806 68.0534 184.049 68.5781C184.292 69.1045 184.432 69.7038 184.473 70.3278C184.514 70.9541 184.452 71.5994 184.346 72.2464C184.127 73.5397 183.79 74.7361 183.74 75.8536C183.672 76.9633 183.887 77.9827 184.354 78.6792C184.811 79.3844 185.409 79.775 185.847 79.9295C186.29 80.0926 186.563 80.0727 186.56 80.0996Z" fill="#33535F"/>
<path d="M187.484 94.0726L180.949 99.1709L183.692 103.673L191.561 97.8751L187.484 94.0726Z" fill="#F8A58D"/>
<path d="M170.003 76.9463C170.003 76.9463 170.035 76.4012 168.61 76.3227C167.185 76.2445 167.026 76.2697 167.026 76.2697C167.026 76.2697 166.385 75.4482 166.345 74.9483C166.305 74.4479 166.65 73.6056 166.65 73.6056L168.092 73.4732L167.7 72.4942L166.684 72.5645L163.813 72.909L162.671 77.9349L154.836 92.5606C153.562 94.4675 154.267 97.0605 156.332 98.0586C158.357 99.0376 161.071 96.9593 161.822 94.8385L166.158 78.5706L167.683 77.3794L169.869 76.9784" fill="#F8A58D"/>
<path d="M152.143 174.291L162.81 112.921L162.795 112.917C162.818 112.826 162.84 112.74 162.863 112.651L162.865 112.64H162.865C164.68 105.442 167.479 103.134 167.479 103.134L183.804 104.159C185.192 106.654 185.368 112.64 185.368 112.64C185.558 113.374 181.919 172.839 181.919 172.839L176.459 172.689L173.498 116.428L157.611 174.525L152.143 174.291Z" fill="#F8A58D"/>
<path d="M152.016 174.843L152.036 174.288L157.652 174.45L157.604 176.279L157.256 176.29C155.711 176.328 149.397 176.383 148.375 176.065C147.235 175.71 152.016 174.843 152.016 174.843Z" fill="#F99624"/>
<path d="M157.6 176.204L157.598 176.162L155.592 176.126C155.696 175.716 155.961 175.343 156.326 175.094C156.656 174.87 157.047 174.742 157.451 174.742C157.515 174.742 157.579 174.745 157.644 174.752L157.6 176.204Z" fill="#F89DB4"/>
<path d="M156.802 176.312C156.503 176.312 156.2 176.312 155.899 176.311C156.481 176.306 156.957 176.298 157.256 176.29L157.603 176.279C157.361 176.292 157.092 176.303 156.802 176.312ZM152.509 176.31C152.465 176.31 152.423 176.31 152.379 176.31C152.326 176.309 152.273 176.307 152.22 176.306C152.316 176.307 152.412 176.309 152.509 176.31Z" fill="white"/>
<path d="M154.788 176.338C153.998 176.338 153.17 176.328 152.379 176.31C152.423 176.31 152.465 176.31 152.509 176.31C153.083 176.317 153.666 176.319 154.222 176.319C154.827 176.319 155.402 176.316 155.899 176.311C156.2 176.312 156.503 176.312 156.802 176.312C156.2 176.33 155.51 176.338 154.788 176.338Z" fill="#9BA6A6"/>
<path d="M148.424 176.079C148.295 176.055 148.217 176.031 148.197 176.005C148.169 175.969 148.178 175.93 148.214 175.89C148.171 175.956 148.215 176.015 148.374 176.065C148.389 176.069 148.406 176.074 148.424 176.079ZM149.267 175.452C149.499 175.386 149.677 175.343 149.677 175.343C149.535 175.379 149.398 175.415 149.267 175.452Z" fill="white"/>
<path d="M154.222 176.32C153.667 176.32 153.084 176.317 152.51 176.31C152.413 176.309 152.316 176.307 152.221 176.306C150.506 176.264 148.987 176.182 148.425 176.079C148.407 176.074 148.39 176.07 148.375 176.065C148.216 176.015 148.172 175.956 148.215 175.89C148.35 175.735 148.884 175.561 149.268 175.452C149.399 175.415 149.536 175.379 149.677 175.343C150.002 175.365 150.151 176.026 150.151 176.026L155.592 176.126C155.587 176.145 155.582 176.164 155.578 176.183L157.6 176.204L157.604 176.279L157.256 176.29C156.958 176.298 156.482 176.306 155.9 176.311C155.403 176.317 154.828 176.32 154.222 176.32Z" fill="#F89DB4"/>
<path d="M157.6 176.204L155.578 176.183C155.582 176.164 155.587 176.145 155.592 176.126L157.599 176.162L157.6 176.204Z" fill="#FCD5DF"/>
<path d="M157.686 176.161C157.686 176.164 157.652 176.166 157.589 176.168C157.507 176.171 157.416 176.174 157.313 176.177C157.037 176.181 156.696 176.185 156.296 176.191C155.436 176.197 154.25 176.191 152.939 176.158C151.628 176.124 150.442 176.069 149.585 176.019C149.185 175.993 148.846 175.971 148.57 175.953C148.467 175.945 148.377 175.938 148.294 175.931C148.231 175.925 148.198 175.921 148.198 175.918C148.198 175.916 148.232 175.916 148.295 175.918C148.378 175.921 148.469 175.925 148.571 175.929C148.847 175.941 149.187 175.957 149.587 175.974C150.445 176.013 151.631 176.06 152.941 176.094C154.25 176.128 155.437 176.141 156.296 176.146C156.696 176.148 157.037 176.151 157.313 176.152C157.415 176.154 157.507 176.155 157.589 176.156C157.652 176.158 157.686 176.159 157.686 176.161Z" fill="#17282F"/>
<path d="M150.149 176.106C150.129 176.109 150.12 175.882 149.973 175.651C149.831 175.416 149.626 175.296 149.638 175.28C149.642 175.264 149.879 175.369 150.032 175.619C150.188 175.868 150.166 176.11 150.149 176.106Z" fill="#17282F"/>
<path d="M151.823 175.372C151.807 175.381 151.731 175.289 151.653 175.168C151.575 175.046 151.525 174.94 151.541 174.932C151.557 174.922 151.633 175.014 151.711 175.135C151.789 175.257 151.839 175.363 151.823 175.372Z" fill="#17282F"/>
<path d="M152.282 175.161C152.269 175.173 152.182 175.117 152.089 175.034C151.994 174.951 151.929 174.873 151.942 174.86C151.955 174.848 152.042 174.905 152.136 174.988C152.229 175.071 152.295 175.149 152.282 175.161Z" fill="#17282F"/>
<path d="M152.584 174.678C152.583 174.696 152.452 174.707 152.291 174.705C152.129 174.702 151.999 174.686 151.999 174.669C151.999 174.651 152.131 174.64 152.292 174.642C152.453 174.645 152.584 174.661 152.584 174.678Z" fill="#17282F"/>
<path d="M152.692 174.335C152.698 174.351 152.554 174.407 152.364 174.414C152.174 174.423 152.025 174.38 152.029 174.364C152.033 174.346 152.181 174.36 152.361 174.351C152.541 174.344 152.687 174.317 152.692 174.335Z" fill="#17282F"/>
<path d="M151.647 174.914C151.648 174.92 151.509 174.932 151.288 174.902C151.178 174.887 151.048 174.859 150.908 174.813C150.838 174.788 150.766 174.769 150.691 174.723C150.657 174.7 150.618 174.669 150.606 174.618C150.592 174.567 150.623 174.512 150.664 174.485C151.013 174.329 151.351 174.518 151.473 174.686C151.541 174.772 151.571 174.855 151.584 174.912C151.597 174.97 151.595 175.002 151.59 175.003C151.577 175.007 151.57 174.87 151.436 174.713C151.369 174.636 151.268 174.56 151.134 174.52C151.008 174.482 150.828 174.467 150.706 174.536C150.647 174.574 150.667 174.637 150.729 174.673C150.788 174.71 150.864 174.734 150.929 174.759C151.064 174.806 151.189 174.837 151.297 174.858C151.511 174.899 151.648 174.903 151.647 174.914Z" fill="#17282F"/>
<path d="M151.553 174.927C151.548 174.931 151.498 174.845 151.519 174.694C151.53 174.621 151.561 174.534 151.624 174.453C151.69 174.381 151.775 174.281 151.929 174.291C152.011 174.302 152.05 174.392 152.034 174.447C152.027 174.506 151.996 174.555 151.969 174.595C151.913 174.677 151.85 174.743 151.794 174.793C151.678 174.892 151.587 174.929 151.584 174.922C151.577 174.915 151.657 174.864 151.759 174.762C151.81 174.71 151.866 174.644 151.916 174.565C151.967 174.496 152.005 174.37 151.915 174.352C151.826 174.342 151.731 174.423 151.674 174.488C151.615 174.558 151.582 174.636 151.566 174.702C151.535 174.837 151.565 174.925 151.553 174.927Z" fill="#17282F"/>
<path d="M157.615 174.736C157.614 174.748 157.455 174.718 157.202 174.739C156.951 174.758 156.6 174.845 156.29 175.061C155.981 175.277 155.794 175.567 155.704 175.785C155.612 176.006 155.6 176.156 155.587 176.154C155.583 176.154 155.582 176.116 155.59 176.049C155.598 175.982 155.618 175.886 155.66 175.77C155.74 175.542 155.927 175.236 156.249 175.01C156.572 174.785 156.94 174.703 157.199 174.695C157.329 174.69 157.435 174.699 157.506 174.71C157.577 174.721 157.616 174.733 157.615 174.736Z" fill="#17282F"/>
<path d="M154.89 175.659C154.892 175.675 154.526 175.721 154.072 175.712C153.617 175.705 153.253 175.646 153.256 175.63C153.258 175.611 153.622 175.642 154.073 175.649C154.523 175.658 154.888 175.64 154.89 175.659Z" fill="#17282F"/>
<path d="M155.986 175.686C155.999 175.699 155.954 175.757 155.914 175.834C155.873 175.91 155.852 175.979 155.832 175.978C155.815 175.977 155.806 175.894 155.853 175.806C155.899 175.717 155.974 175.673 155.986 175.686Z" fill="#17282F"/>
<path d="M156.412 175.219C156.425 175.231 156.387 175.284 156.328 175.338C156.269 175.39 156.21 175.424 156.197 175.41C156.184 175.398 156.222 175.345 156.281 175.292C156.341 175.239 156.4 175.207 156.412 175.219Z" fill="#17282F"/>
<path d="M157.01 175.016C157.006 175.033 156.931 175.031 156.849 175.056C156.765 175.079 156.705 175.119 156.691 175.107C156.676 175.098 156.725 175.025 156.829 174.995C156.932 174.966 157.017 175 157.01 175.016Z" fill="#17282F"/>
<path d="M157.435 174.924C157.441 174.94 157.408 174.966 157.361 174.982C157.314 174.997 157.271 174.996 157.264 174.98C157.258 174.964 157.291 174.938 157.338 174.922C157.385 174.907 157.428 174.907 157.435 174.924Z" fill="#17282F"/>
<path d="M179.441 78.6727C179.441 78.6727 181.447 78.8728 183.763 80.3743C188.925 83.7202 197.557 90.7962 196.841 94.0727C196.231 96.8622 189.498 100.249 189.498 100.249L185.126 94.9901L187.806 93.4569L181.216 89.0733L179.441 78.6727Z" fill="#17282F"/>
<path d="M182.385 89.3259L182.171 90.1105L181.412 93.7368L181.224 99.0525C185.14 104.094 185.198 108.339 185.198 108.339L165.422 110.649C165.425 106.742 166.85 101.823 166.85 101.823C167.995 99.8814 167.94 94.0748 167.725 93.8631C166.49 92.6388 166.19 91.7405 167.177 90.1721C167.177 90.1721 161.046 96.6123 160.415 97.1912C158.249 99.1766 156.165 98.6229 155.198 97.7601C152.49 95.3433 155.27 92.227 155.27 92.227L165.597 80.3913C166.302 79.5828 167.236 79.0012 168.28 78.7552C169.381 78.4952 170.491 78.3629 170.491 78.3629L177.387 78.4215C177.387 78.4215 178.71 78.4679 179.441 78.6727C179.441 78.6727 181.835 79.4413 182.453 82.4049C183.07 85.3685 182.385 89.3259 182.385 89.3259Z" fill="#17282F"/>
<path d="M182.601 84.5847C182.616 84.5847 182.63 84.7882 182.643 85.1576C182.652 85.5273 182.645 86.0624 182.606 86.722C182.529 88.0417 182.303 89.8562 181.925 91.8347C181.795 92.5099 181.659 93.1596 181.517 93.7619L181.52 93.7407C181.459 95.2769 181.398 96.6053 181.346 97.5492C181.318 97.9884 181.294 98.3564 181.275 98.655C181.254 98.9132 181.237 99.0529 181.224 99.0525C181.211 99.0516 181.204 98.9114 181.201 98.6524C181.203 98.3534 181.206 97.9845 181.209 97.5444C181.222 96.5992 181.255 95.2696 181.303 93.7329V93.7233L181.305 93.7116C181.441 93.114 181.574 92.4639 181.703 91.7926C182.08 89.821 182.329 88.0196 182.446 86.7103C182.506 86.0554 182.537 85.5243 182.555 85.1567C182.569 84.7891 182.585 84.5851 182.601 84.5847Z" fill="#33535F"/>
<path d="M182.668 89.9012C182.703 89.85 184.32 90.9072 186.278 92.2625C188.237 93.6178 189.796 94.7578 189.76 94.809C189.724 94.8602 188.108 93.8035 186.149 92.4478C184.191 91.0929 182.632 89.9529 182.668 89.9012Z" fill="#33535F"/>
<path d="M169.882 82.1514C169.888 82.1458 169.923 82.1723 169.984 82.2278C170.049 82.2812 170.13 82.3728 170.23 82.4964C170.424 82.7455 170.651 83.1617 170.765 83.722C170.882 84.2796 170.873 84.9792 170.653 85.7035C170.414 86.4174 170.049 87.1586 169.543 87.8595C169.292 88.2105 169.015 88.5304 168.727 88.8185C168.44 89.1106 168.133 89.351 167.864 89.5967C167.317 90.0866 166.845 90.5518 166.456 90.9485C166.065 91.3456 165.758 91.675 165.545 91.9024C165.332 92.1302 165.213 92.2552 165.2 92.2448C165.189 92.2352 165.285 92.0911 165.479 91.8455C165.672 91.5994 165.962 91.2518 166.339 90.8387C166.716 90.4255 167.179 89.946 167.724 89.4426C167.995 89.187 168.297 88.9453 168.57 88.6627C168.848 88.3807 169.115 88.0686 169.36 87.7271C169.851 87.0484 170.215 86.3215 170.454 85.6406C170.675 84.9553 170.7 84.287 170.608 83.7511C170.426 82.6531 169.835 82.1757 169.882 82.1514Z" fill="#33535F"/>
<path d="M167.58 99.6332L167.809 96.9764H181.297L181.224 99.0525L167.58 99.6332Z" fill="#33535F"/>
<path d="M156.075 91.7032C156.1 91.7375 155.734 91.9584 155.327 92.4843C154.922 92.9982 154.504 93.8691 154.542 94.8764C154.585 95.8836 155.073 96.7182 155.519 97.1973C155.967 97.6881 156.349 97.879 156.327 97.9146C156.32 97.9268 156.22 97.8925 156.051 97.8001C155.883 97.7085 155.652 97.5488 155.403 97.3079C154.909 96.8379 154.363 95.9652 154.316 94.8855C154.275 93.8062 154.749 92.8923 155.203 92.3837C155.431 92.1233 155.649 91.9449 155.809 91.8403C155.97 91.7349 156.067 91.6919 156.075 91.7032Z" fill="#33535F"/>
<path d="M181.92 172.839L183.45 176.398L176.604 176.316L176.46 172.689L181.92 172.839Z" fill="#F99624"/>
<path d="M176.554 175.701C176.553 175.719 176.92 175.74 177.512 175.749C178.105 175.76 178.924 175.757 179.827 175.742C180.689 175.724 181.468 175.708 182.138 175.694C182.729 175.679 183.095 175.665 183.095 175.646C183.095 175.628 182.73 175.608 182.137 175.599C181.544 175.59 180.725 175.593 179.822 175.607C178.961 175.625 178.181 175.641 177.512 175.654C176.92 175.669 176.554 175.682 176.554 175.701Z" fill="#17282F"/>
<path d="M179.407 172.762C179.348 172.765 179.335 173.411 179.379 174.205C179.423 174.999 179.507 175.641 179.567 175.637C179.627 175.634 179.64 174.988 179.595 174.194C179.551 173.399 179.467 172.758 179.407 172.762Z" fill="#17282F"/>
<path d="M183.439 176.472L179.984 176.356L183.441 176.397L183.439 176.472Z" fill="#9BA6A6"/>
<path d="M176.602 176.243H176.598L176.561 175.705C176.566 175.707 176.572 175.708 176.581 175.709L176.602 176.243ZM176.561 175.696L176.554 175.594L176.576 175.594L176.58 175.692C176.572 175.694 176.565 175.695 176.561 175.696Z" fill="white"/>
<path d="M183.441 176.397L179.984 176.356L176.601 176.243L176.58 175.709C176.674 175.725 177.013 175.742 177.512 175.749C177.746 175.754 178.015 175.756 178.311 175.756C178.764 175.756 179.28 175.751 179.826 175.742C180.688 175.725 181.467 175.708 182.137 175.694C182.689 175.68 183.044 175.667 183.09 175.65H183.094L183.441 176.395V176.397ZM176.579 175.693L176.575 175.594L179.32 175.618C178.656 175.631 178.048 175.643 177.511 175.654C177.011 175.667 176.672 175.678 176.579 175.693Z" fill="#F89DB4"/>
<path d="M178.312 175.756C178.016 175.756 177.747 175.754 177.512 175.749C177.013 175.741 176.675 175.725 176.581 175.709C176.572 175.708 176.566 175.707 176.561 175.705L176.561 175.696C176.565 175.695 176.571 175.694 176.58 175.693C176.673 175.678 177.012 175.667 177.511 175.654C178.049 175.643 178.657 175.631 179.321 175.618L179.548 175.62C179.555 175.631 179.561 175.637 179.567 175.637C179.567 175.637 179.567 175.637 179.567 175.637C179.572 175.636 179.578 175.631 179.582 175.62L183.09 175.65C183.045 175.667 182.689 175.68 182.138 175.694C181.468 175.708 180.689 175.725 179.827 175.742C179.28 175.751 178.765 175.756 178.312 175.756Z" fill="#9BA6A6"/>
<path d="M179.566 175.637C179.56 175.637 179.554 175.631 179.548 175.619L179.582 175.62C179.577 175.631 179.572 175.636 179.567 175.637C179.566 175.637 179.566 175.637 179.566 175.637Z" fill="#9BA6A6"/>
<path d="M184.763 104.911C189.912 121.164 183.274 140.892 184.866 159.829C185.022 161.69 185.777 163.916 184.037 164.974C183.569 165.259 183.015 165.376 182.467 165.358C181.077 165.313 179.915 164.591 178.675 164.096C176.316 163.155 173.634 163.051 171.211 163.807C169.568 164.319 167.938 165.225 166.236 164.967C163.977 164.626 162.512 162.392 160.432 161.445C158.952 160.771 157.297 160.801 155.649 160.83C155.128 160.839 154.609 160.849 154.096 160.836L154.032 160.834C150.946 160.738 148.786 157.734 149.599 154.755C152.708 143.37 163.018 106.385 167.581 99.6331L181.225 99.0524C182.482 100.572 184.098 102.841 184.763 104.911Z" fill="#F99624"/>
<path d="M179.983 112.563C180.005 112.583 179.722 112.94 179.241 113.495C178.755 114.047 178.078 114.811 177.226 115.554C176.371 116.296 175.495 116.837 174.849 117.189C174.199 117.538 173.779 117.715 173.766 117.69C173.719 117.612 175.387 116.836 177.078 115.383C177.917 114.652 178.608 113.91 179.123 113.387C179.634 112.86 179.959 112.541 179.983 112.563Z" fill="#17282F"/>
<path d="M169.905 157.277C169.258 157.277 168.583 157.043 168.092 156.619C167.09 155.754 166.69 154.391 166.439 153.09C164.565 143.394 167.957 133.651 171.622 124.48L173.958 118.696C169.661 129.691 168.851 142.02 171.672 153.483C171.917 154.476 172.167 155.605 171.601 156.458C171.227 157.022 170.581 157.277 169.905 157.277Z" fill="#F58300"/>
<path d="M96.5711 125.43H70.7129V124.173H96.5711V125.43Z" fill="#17282F"/>
<path d="M66.706 125.43L61.8555 107.254H82.046L86.4383 125.43H66.706Z" fill="#17282F"/>
<path d="M85.2281 124.054H67.1904L62.9922 108.094H81.1223L85.2281 124.054Z" fill="#F3F2F1"/>
<path d="M63.2938 109.241C69.4015 109.241 75.3196 109.241 81.4273 109.241L81.1223 108.094H62.9922L63.2938 109.241Z" fill="#E7E8E5"/>
<path d="M65.252 108.668C65.252 108.777 65.3409 108.865 65.4503 108.865C65.5596 108.865 65.6486 108.777 65.6486 108.668C65.6486 108.558 65.5596 108.469 65.4503 108.469C65.3409 108.469 65.252 108.558 65.252 108.668Z" fill="#FAFAF9"/>
<path d="M64.5703 108.668C64.5703 108.777 64.6588 108.865 64.7682 108.865C64.8776 108.865 64.9661 108.777 64.9661 108.668C64.9661 108.558 64.8776 108.469 64.7682 108.469C64.6588 108.469 64.5703 108.558 64.5703 108.668Z" fill="#FAFAF9"/>
<path d="M63.8877 108.668C63.8877 108.777 63.9767 108.865 64.086 108.865C64.1954 108.865 64.2843 108.777 64.2843 108.668C64.2843 108.558 64.1954 108.469 64.086 108.469C63.9767 108.469 63.8877 108.558 63.8877 108.668Z" fill="#FAFAF9"/>
<path d="M76.9207 116.235L78.9066 118.507C79.679 117.955 80.1295 117.111 80.1256 116.222C80.1195 114.633 78.6679 113.332 76.9094 113.339C75.1514 113.346 73.7098 114.659 73.7158 116.247L76.9207 116.235Z" fill="#F03D5F"/>
<path d="M76.6695 116.599C76.6773 116.58 76.8809 116.786 77.2358 117.166C77.5904 117.547 78.0973 118.102 78.704 118.781L78.7726 118.858L78.687 118.922C77.8825 119.526 76.5428 119.782 75.3394 119.25C74.767 119.009 74.2926 118.605 73.962 118.143C73.6352 117.675 73.4703 117.143 73.4516 116.652L73.4473 116.551L73.5466 116.55C74.497 116.545 75.2838 116.549 75.8289 116.558C76.374 116.566 76.6778 116.58 76.6695 116.599C76.6613 116.618 76.3419 116.64 75.7951 116.666C75.2483 116.692 74.4745 116.72 73.5497 116.744L73.6452 116.643C73.6729 117.097 73.8322 117.585 74.1395 118.017C74.4511 118.443 74.8937 118.818 75.4292 119.043C76.5536 119.54 77.81 119.315 78.5768 118.766L78.5599 118.907C77.9849 118.233 77.5105 117.666 77.1794 117.262C76.8483 116.857 76.6613 116.617 76.6695 116.599Z" fill="#17282F"/>
<path d="M75.3721 114.521C75.3725 114.62 75.4532 114.7 75.5526 114.7C75.6515 114.699 75.7318 114.618 75.7314 114.519C75.731 114.42 75.6503 114.34 75.5509 114.34C75.4519 114.34 75.3716 114.421 75.3721 114.521Z" fill="#17282F"/>
<path d="M71.7998 113.22C71.7994 113.157 72.7598 113.103 73.9449 113.098C74.0426 113.098 74.1385 113.098 74.2309 113.098H74.2778L74.3103 113.131C75.0516 113.876 75.5919 114.479 75.5515 114.52C75.5111 114.56 74.904 114.025 74.1524 113.29L74.2318 113.322C74.1394 113.323 74.0434 113.324 73.9458 113.325C72.7611 113.328 71.7998 113.282 71.7998 113.22Z" fill="#17282F"/>
<path d="M67.7397 115.493C67.728 115.508 67.6564 115.208 67.5344 114.655C67.4129 114.104 67.2406 113.299 67.0432 112.313L67.0215 112.205L67.133 112.204C68.4102 112.192 69.9534 112.179 71.6207 112.165C71.5973 112.145 71.8325 112.339 71.7331 112.257V112.258L71.7335 112.26L71.734 112.263L71.7353 112.27L71.7379 112.283L71.7431 112.31L71.7531 112.364L71.773 112.471L71.8134 112.684C71.8403 112.825 71.8664 112.965 71.8928 113.104C71.9445 113.383 71.9961 113.656 72.046 113.925C72.1445 114.459 72.2391 114.972 72.3285 115.456L72.3511 115.578L72.2283 115.578C70.8804 115.574 69.746 115.558 68.9583 115.542C68.5972 115.533 68.2956 115.524 68.0478 115.518C67.84 115.51 67.7323 115.502 67.7397 115.493C67.7471 115.484 67.8686 115.475 68.0869 115.466C68.3403 115.457 68.6489 115.447 69.0173 115.434C69.8102 115.412 70.9199 115.387 72.2274 115.373L72.1272 115.494C72.033 115.01 71.9336 114.499 71.8295 113.965C71.7778 113.697 71.7253 113.424 71.6719 113.147C71.6455 113.007 71.6185 112.867 71.5916 112.726L71.5513 112.513L71.5309 112.406L71.5209 112.352L71.5157 112.325L71.5131 112.312L71.5118 112.305L71.5114 112.302L71.5109 112.3V112.299C71.4111 112.217 71.6463 112.411 71.622 112.391C69.9543 112.389 68.4111 112.388 67.1339 112.388L67.2237 112.279C67.3943 113.232 67.5253 114.025 67.6147 114.588C67.7041 115.15 67.7514 115.479 67.7397 115.493Z" fill="#17282F"/>
<path d="M75.1055 118.134C75.1059 118.233 75.1866 118.313 75.286 118.313C75.3849 118.313 75.4652 118.232 75.4648 118.133C75.4644 118.033 75.3836 117.953 75.2843 117.954C75.1853 117.954 75.105 118.035 75.1055 118.134Z" fill="#17282F"/>
<path d="M72.0244 118.146C72.0244 118.084 72.7539 118.03 73.654 118.027C74.5549 118.023 75.2844 118.071 75.2848 118.133C75.2853 118.196 74.5553 118.249 73.6548 118.253C72.7552 118.257 72.0248 118.209 72.0244 118.146Z" fill="#17282F"/>
<path d="M67.7554 119.563C67.7455 119.576 67.6769 119.364 67.558 118.963C67.4399 118.563 67.2703 117.972 67.0702 117.236L67.042 117.131L67.1522 117.129C68.3743 117.107 69.9999 117.09 71.7797 117.083C71.682 117.007 71.9142 117.186 71.8903 117.168V117.169L71.8908 117.17L71.8912 117.173L71.8925 117.178L71.8951 117.187L71.8999 117.207L71.9099 117.245L71.9298 117.323L71.9693 117.477L72.0474 117.783C72.0991 117.985 72.1498 118.185 72.1997 118.382C72.2987 118.774 72.3942 119.154 72.4862 119.518L72.5196 119.651L72.3838 119.651C71.0111 119.648 69.8415 119.632 69.0248 119.616C68.6516 119.605 68.3378 119.597 68.0779 119.59C67.8609 119.582 67.7481 119.572 67.7554 119.563C67.7628 119.553 67.8904 119.543 68.1178 119.533C68.3834 119.524 68.7041 119.513 69.0847 119.5C69.9058 119.477 71.0497 119.451 72.3829 119.439L72.2809 119.571C72.1859 119.207 72.0869 118.828 71.9845 118.437C71.9333 118.241 71.8817 118.041 71.8296 117.839L71.7506 117.533L71.7111 117.379L71.6911 117.302L71.6812 117.263L71.6764 117.243L71.6738 117.234L71.6725 117.229L71.6716 117.226V117.225L71.6712 117.225C71.6473 117.206 71.879 117.385 71.781 117.309C70.0008 117.316 68.3747 117.312 67.1531 117.3L67.2351 117.193C67.4065 117.903 67.5385 118.487 67.6283 118.899C67.7181 119.311 67.7654 119.549 67.7554 119.563Z" fill="#17282F"/>
<path d="M68.0957 113.275C68.0953 113.213 68.7822 113.16 69.6302 113.157C70.4782 113.153 71.1656 113.201 71.1661 113.263C71.1661 113.326 70.4791 113.379 69.6311 113.383C68.7835 113.386 68.0957 113.338 68.0957 113.275Z" fill="#17282F"/>
<path d="M68.1328 113.778C68.1324 113.716 68.8237 113.663 69.6765 113.659C70.5296 113.656 71.221 113.704 71.221 113.766C71.2214 113.828 70.5305 113.882 69.6773 113.885C68.8246 113.889 68.1332 113.84 68.1328 113.778Z" fill="#17282F"/>
<path d="M68.2246 114.263C68.2246 114.2 68.8916 114.147 69.7144 114.143C70.5377 114.141 71.2051 114.189 71.2056 114.251C71.2056 114.313 70.5385 114.367 69.7153 114.37C68.8925 114.373 68.225 114.325 68.2246 114.263Z" fill="#17282F"/>
<path d="M68.1855 118.106C68.1851 118.043 68.8404 117.99 69.6485 117.987C70.457 117.984 71.1118 118.031 71.1123 118.094C71.1127 118.156 70.4578 118.21 69.6493 118.212C68.8413 118.216 68.1855 118.168 68.1855 118.106Z" fill="#17282F"/>
<path d="M68.3682 118.661C68.3677 118.599 68.9263 118.546 69.6154 118.543C70.305 118.541 70.8635 118.589 70.8639 118.652C70.8644 118.714 70.3059 118.767 69.6163 118.77C68.9271 118.772 68.3682 118.724 68.3682 118.661Z" fill="#17282F"/>
<path d="M40.0898 125.371V127.755H41.6508V176.017H44.854V127.755H61.8531V176.017H65.0563V127.755H138.802V176.005H142.005V127.755H143.391V125.371H40.0898Z" fill="#17282F"/>
<path d="M109.541 143.354C109.541 143.402 110.474 143.441 111.624 143.441C112.775 143.441 113.707 143.402 113.707 143.354C113.707 143.306 112.775 143.267 111.624 143.267C110.474 143.267 109.541 143.306 109.541 143.354Z" fill="#17282F"/>
<path d="M79.2046 143.846C79.1421 143.846 79.0918 143.821 79.0918 143.791C79.0918 143.761 79.1421 143.735 79.2046 143.735C79.2667 143.735 79.3175 143.761 79.3175 143.791C79.3175 143.821 79.2667 143.846 79.2046 143.846Z" fill="#33535F"/>
<path d="M99.614 100.888L87.6503 88.7343L87.3912 87.4181C87.3417 87.1772 87.2918 86.9086 87.2454 86.6035C87.1911 86.2472 87.1994 85.8849 87.264 85.5325C87.3426 85.1059 87.4697 84.5435 87.6329 84.2588C87.8347 83.9064 87.5114 83.4824 87.1785 83.6273C86.8452 83.7732 86.2663 84.7288 86.1418 86.0415C86.0172 87.3543 84.8967 85.6123 84.4775 84.9852C84.0583 84.3577 82.673 82.4782 82.384 82.4556C81.96 82.4231 81.852 82.8818 82.2851 83.4989C82.7229 84.1229 83.8895 86.0572 83.5579 86.2655L83.5453 86.2629C82.8709 86.1483 82.2052 86.482 81.8928 87.0826C81.5907 87.6629 81.2544 88.4852 81.5299 88.8641C82.0494 89.5793 83.4373 90.8851 83.4373 90.8851L83.8383 91.2297C83.8387 91.2305 94.1885 106.227 96.4443 106.714C97.8473 107.018 119.537 108.816 119.537 108.816L121.174 102.841L99.614 100.888Z" fill="#C0776A"/>
<path d="M81.4375 88.6123C81.8064 88.9669 82.1753 89.321 82.5441 89.6756C82.6695 89.7958 82.7993 89.919 82.9612 89.9815C83.1231 90.0436 83.327 90.0306 83.4446 89.903C83.5514 89.7875 83.5614 89.607 83.5097 89.459C83.4585 89.3102 83.3557 89.186 83.255 89.065C82.8965 88.634 82.5381 88.2031 82.1796 87.7722" fill="#C0776A"/>
<path d="M82.1793 87.7722C82.2031 87.7523 82.411 87.958 82.7278 88.3064C82.9044 88.5069 83.0863 88.7131 83.2746 88.9262C83.3727 89.0438 83.4929 89.1648 83.5797 89.3389C83.6643 89.5103 83.699 89.7537 83.5493 89.9538C83.3857 90.1513 83.1275 90.1573 82.9439 90.0931C82.7538 90.0232 82.6228 89.8965 82.5104 89.7872C82.3112 89.5845 82.1185 89.3883 81.931 89.1974C81.606 88.8572 81.4159 88.635 81.4372 88.6124C81.4589 88.5903 81.6884 88.7712 82.0417 89.0819C82.24 89.2616 82.4431 89.4456 82.654 89.6366C82.7656 89.739 82.8836 89.8397 83.0159 89.8831C83.1431 89.9273 83.3028 89.9065 83.3718 89.8136C83.446 89.7203 83.4421 89.5593 83.3796 89.4343C83.3184 89.302 83.2112 89.1822 83.1145 89.0594C82.9391 88.8355 82.7695 88.6193 82.6045 88.4089C82.3194 88.0339 82.1554 87.7922 82.1793 87.7722Z" fill="#B85549"/>
<path d="M82.2227 87.8391C82.5915 88.1932 82.9604 88.5477 83.3293 88.9019C83.4547 89.0221 83.5845 89.1453 83.7463 89.2074C83.9082 89.2699 84.1122 89.2569 84.2298 89.1293C84.337 89.0138 84.3465 88.8337 84.2949 88.6849C84.2432 88.5369 84.1408 88.4119 84.0401 88.2913C83.6817 87.8603 83.3232 87.4294 82.9647 86.9989" fill="#C0776A"/>
<path d="M82.9654 86.9989C82.9893 86.979 83.1972 87.1842 83.5136 87.5327C83.6906 87.7336 83.8724 87.9393 84.0608 88.1524C84.1589 88.2696 84.2791 88.3911 84.3654 88.5656C84.4505 88.737 84.4852 88.9804 84.3355 89.1801C84.1719 89.378 83.9137 89.384 83.7301 89.3189C83.54 89.2499 83.409 89.1228 83.2966 89.0139C83.0974 88.8108 82.9047 88.6146 82.7172 88.4241C82.3922 88.0834 82.2017 87.8612 82.2234 87.8391C82.2451 87.8165 82.4746 87.9975 82.8279 88.3086C83.0258 88.4879 83.2293 88.6723 83.4402 88.8633C83.5517 88.9657 83.6698 89.0655 83.8021 89.1098C83.9293 89.1532 84.0886 89.1332 84.158 89.0403C84.2322 88.947 84.2283 88.786 84.1658 88.6606C84.1046 88.5287 83.9974 88.4085 83.9007 88.2852C83.7249 88.0617 83.5556 87.8456 83.3907 87.6351C83.1056 87.2606 82.9416 87.0189 82.9654 86.9989Z" fill="#B85549"/>
<path d="M83.085 87.2051C83.4538 87.5592 83.8227 87.9137 84.1916 88.2679C84.317 88.3881 84.4463 88.5113 84.6086 88.5738C84.7705 88.6359 84.9745 88.6228 85.0921 88.4953C85.1988 88.3798 85.2088 88.1997 85.1572 88.0509C85.106 87.9025 85.0031 87.7783 84.9024 87.6573C84.544 87.2263 84.1855 86.7954 83.8271 86.3649" fill="#C0776A"/>
<path d="M83.8268 86.3648C83.8507 86.3444 84.0585 86.5501 84.3749 86.8986C84.5519 87.0991 84.7338 87.3053 84.9221 87.5183C85.0202 87.6355 85.1404 87.757 85.2272 87.9315C85.3118 88.1025 85.3461 88.3464 85.1968 88.546C85.0332 88.7439 84.775 88.7495 84.5914 88.6848C84.4009 88.6158 84.2703 88.4887 84.1579 88.3798C83.9583 88.1767 83.766 87.9805 83.5781 87.7896C83.2531 87.4493 83.063 87.2271 83.0847 87.205C83.1064 87.1824 83.3355 87.3634 83.6888 87.6746C83.8871 87.8538 84.0906 88.0382 84.3015 88.2287C84.4131 88.3312 84.5311 88.4314 84.663 88.4757C84.7906 88.5195 84.9499 88.4987 85.0193 88.4062C85.0935 88.3125 85.0892 88.1515 85.0271 88.0265C84.966 87.8946 84.8588 87.7744 84.762 87.6516C84.5862 87.4276 84.417 87.2115 84.2521 87.001C83.967 86.6261 83.8025 86.3848 83.8268 86.3648Z" fill="#B85549"/>
<path d="M84.834 89.0443C84.831 89.0082 85.1083 88.9527 85.508 89.0755L85.3808 89.1849C85.3283 88.9713 85.3044 88.7027 85.3526 88.4245C85.4151 88.0249 85.5991 87.6972 85.767 87.4993C85.9376 87.3001 86.0817 87.2216 86.0995 87.2428C86.1472 87.2858 85.6863 87.7302 85.5757 88.4606C85.5323 88.7105 85.5422 88.9496 85.5692 89.1467L85.5926 89.3198L85.4416 89.2556C85.0953 89.108 84.8323 89.0881 84.834 89.0443Z" fill="#B85549"/>
<path d="M115.285 82.667L115.336 99.3159L108.844 99.6257L108.581 95.6354C108.581 95.6354 105.449 96.1114 104.795 93.755C104.377 92.2495 104.481 80.6177 104.481 80.6177L115.285 82.667Z" fill="#C0776A"/>
<path d="M102.869 82.2599C103.35 83.2546 105.641 85.0751 105.641 85.0751L106.676 87.8486C107.575 87.1451 108.782 87.1851 109.011 88.7652C109.175 89.9065 107.756 90.1374 107.756 90.1374C108.582 91.5435 109.143 92.6809 110.346 94.018C111.648 95.4657 112.377 95.6115 113.789 95.6354H115.346C115.346 95.6354 118.533 92.9725 117.903 85.96C117.273 78.9474 110.969 80.9932 109.464 79.2412C107.013 76.3874 101.263 78.9387 102.869 82.2599Z" fill="#17282F"/>
<path d="M117.549 91.8233C117.549 91.8233 117.272 91.8797 116.778 91.7886C116.289 91.7009 115.593 91.4228 114.918 90.8313C114.236 90.2454 113.637 89.3518 113.038 88.3446C112.431 87.3538 111.769 86.1973 110.652 85.427C109.523 84.6714 108.195 84.5174 107.056 84.2843C105.905 84.0682 104.862 83.7393 104.151 83.179C103.44 82.6257 103.091 81.9405 102.988 81.4553C102.881 80.9623 102.956 80.6854 102.956 80.6854C102.972 80.6845 102.907 80.9645 103.022 81.447C103.134 81.9227 103.486 82.591 104.19 83.1282C104.893 83.672 105.923 83.9914 107.071 84.2023C108.208 84.4315 109.548 84.5807 110.703 85.3519C111.843 86.1396 112.506 87.3091 113.109 88.3016C113.704 89.311 114.292 90.1994 114.961 90.7831C115.621 91.3733 116.303 91.6567 116.786 91.7539C117.027 91.8077 117.22 91.8133 117.349 91.8211C117.48 91.8194 117.549 91.8233 117.549 91.8233Z" fill="#33535F"/>
<path d="M117.917 86.1197C117.917 86.1197 117.8 86.0859 117.581 86.0177C117.362 85.9531 117.037 85.8463 116.604 85.8007C116.18 85.7569 115.61 85.7825 115.101 86.1371C114.853 86.312 114.634 86.5849 114.578 86.9269C114.519 87.2593 114.598 87.6633 114.88 87.9203C115.019 88.0474 115.21 88.119 115.405 88.1286C115.603 88.1368 115.803 88.0717 115.983 87.9702C116.343 87.7601 116.634 87.3999 116.768 86.9681C117.06 86.118 116.855 85.0087 116.074 84.3339C115.696 83.9958 115.202 83.7632 114.673 83.7099C114.142 83.6534 113.597 83.771 113.06 83.9216C112.521 84.0727 111.971 84.2501 111.39 84.3231C110.811 84.4007 110.214 84.4042 109.619 84.3274C109.025 84.2454 108.443 84.1061 107.911 83.8544C107.387 83.6061 106.899 83.1917 106.742 82.6219C106.587 82.0664 106.734 81.4393 107.139 81.0492C107.548 80.6512 108.186 80.6013 108.664 80.8239C108.905 80.9342 109.115 81.1208 109.229 81.356C109.351 81.5882 109.38 81.8551 109.349 82.1029C109.282 82.6019 108.985 83.0411 108.589 83.2928C108.193 83.5475 107.735 83.6417 107.307 83.6495C106.875 83.6591 106.465 83.5797 106.09 83.4621C105.337 83.2264 104.739 82.8015 104.303 82.3602C103.86 81.9193 103.576 81.4536 103.39 81.0578C103.199 80.6621 103.124 80.327 103.067 80.1048C103.028 79.8774 103.013 79.7581 103.013 79.7581C103.013 79.7581 103.041 79.8757 103.085 80.1009C103.148 80.3205 103.228 80.6525 103.422 81.0431C103.611 81.4328 103.898 81.8915 104.339 82.3246C104.774 82.7577 105.367 83.173 106.11 83.4013C106.479 83.5146 106.883 83.5914 107.306 83.5801C107.725 83.5701 108.169 83.4764 108.548 83.2299C108.925 82.9886 109.209 82.5663 109.27 82.0929C109.345 81.6211 109.101 81.0978 108.629 80.8995C108.179 80.6907 107.576 80.7406 107.199 81.1112C106.82 81.4758 106.679 82.0738 106.827 82.5976C106.974 83.1322 107.438 83.5311 107.95 83.7732C108.468 84.0184 109.046 84.1573 109.63 84.2376C110.217 84.3135 110.807 84.31 111.378 84.2337C111.951 84.1625 112.494 83.988 113.036 83.8366C113.576 83.6856 114.132 83.5649 114.682 83.6239C115.231 83.6803 115.74 83.9221 116.13 84.2718C116.935 84.9723 117.144 86.1175 116.839 86.992C116.698 87.4381 116.395 87.8135 116.018 88.0309C115.828 88.1364 115.615 88.2049 115.403 88.195C115.192 88.1845 114.986 88.106 114.838 87.9676C114.536 87.6881 114.458 87.265 114.521 86.9169C114.582 86.5576 114.815 86.2733 115.071 86.0963C115.599 85.7348 116.18 85.7165 116.608 85.7656C117.044 85.8177 117.369 85.9301 117.587 86.0004C117.805 86.0741 117.917 86.1197 117.917 86.1197Z" fill="#33535F"/>
<path d="M109.664 171.952L107.543 169.23L112.617 165.223L115.763 169.172L115.465 169.441C114.126 170.625 108.574 175.365 107.414 175.82C106.12 176.328 109.664 171.952 109.664 171.952Z" fill="#F99624"/>
<path d="M107.225 175.896C107.22 175.896 107.215 175.896 107.211 175.894C107.158 175.881 107.134 175.838 107.133 175.774C107.142 175.831 107.178 175.861 107.244 175.861C107.287 175.861 107.344 175.848 107.415 175.821C107.431 175.814 107.448 175.807 107.466 175.799C107.35 175.862 107.268 175.896 107.225 175.896ZM107.758 174.51C107.858 174.359 107.939 174.241 107.974 174.191C107.9 174.299 107.827 174.406 107.758 174.51ZM111.039 173.176C112.843 171.712 114.752 170.072 115.466 169.441L115.764 169.172C114.641 170.232 112.756 171.813 111.039 173.176Z" fill="white"/>
<path d="M107.244 175.861C107.178 175.861 107.142 175.83 107.133 175.774C107.129 175.512 107.502 174.899 107.758 174.51C107.827 174.406 107.9 174.299 107.974 174.191C107.986 174.174 107.993 174.165 107.993 174.165C108.046 174.127 108.111 174.111 108.18 174.111C108.509 174.111 108.958 174.464 108.958 174.464L113.852 170.526C113.865 170.542 113.874 170.551 113.877 170.551C113.877 170.551 113.877 170.551 113.877 170.551C113.881 170.549 113.876 170.537 113.865 170.515L115.666 169.066L115.764 169.172L115.466 169.441C114.752 170.072 112.843 171.712 111.039 173.175C109.473 174.419 108.046 175.481 107.466 175.799C107.448 175.807 107.431 175.814 107.415 175.82C107.344 175.848 107.287 175.861 107.244 175.861Z" fill="#F57797"/>
<path d="M115.744 169C115.746 169.002 115.718 169.028 115.665 169.078C115.593 169.142 115.514 169.212 115.426 169.291C115.184 169.5 114.886 169.757 114.535 170.06C113.779 170.704 112.722 171.578 111.534 172.52C110.346 173.461 109.251 174.289 108.452 174.878C108.076 175.15 107.758 175.381 107.499 175.568C107.402 175.636 107.316 175.696 107.237 175.752C107.177 175.793 107.144 175.814 107.143 175.811C107.141 175.809 107.17 175.784 107.228 175.739C107.304 175.68 107.387 175.617 107.481 175.544C107.736 175.35 108.049 175.114 108.418 174.834C109.209 174.233 110.297 173.399 111.485 172.458C112.673 171.518 113.734 170.65 114.5 170.017C114.857 169.722 115.16 169.472 115.406 169.268C115.498 169.193 115.58 169.127 115.654 169.066C115.711 169.021 115.742 168.998 115.744 169Z" fill="#17282F"/>
<path d="M109.021 174.542C109.004 174.559 108.815 174.351 108.501 174.238C108.188 174.12 107.909 174.158 107.907 174.134C107.899 174.116 108.192 174.039 108.528 174.165C108.865 174.286 109.039 174.534 109.021 174.542Z" fill="#17282F"/>
<path d="M109.917 172.6C109.91 172.62 109.77 172.589 109.604 172.531C109.437 172.473 109.308 172.409 109.316 172.389C109.323 172.368 109.464 172.399 109.629 172.457C109.796 172.515 109.925 172.579 109.917 172.6Z" fill="#17282F"/>
<path d="M110.155 172.057C110.154 172.079 110.032 172.089 109.882 172.079C109.733 172.07 109.613 172.045 109.614 172.023C109.616 172.002 109.738 171.992 109.887 172.002C110.037 172.011 110.157 172.036 110.155 172.057Z" fill="#17282F"/>
<path d="M110.037 171.373C110.051 171.39 109.944 171.499 109.799 171.617C109.654 171.734 109.525 171.815 109.512 171.798C109.498 171.781 109.605 171.673 109.75 171.555C109.895 171.438 110.024 171.357 110.037 171.373Z" fill="#17282F"/>
<path d="M109.859 170.965C109.877 170.976 109.794 171.137 109.631 171.285C109.47 171.434 109.304 171.504 109.295 171.485C109.283 171.465 109.425 171.369 109.578 171.227C109.733 171.086 109.84 170.953 109.859 170.965Z" fill="#17282F"/>
<path d="M109.395 172.293C109.401 172.299 109.288 172.414 109.068 172.548C108.957 172.616 108.82 172.686 108.66 172.747C108.579 172.774 108.499 172.81 108.397 172.821C108.348 172.826 108.288 172.824 108.236 172.784C108.184 172.746 108.167 172.671 108.182 172.615C108.366 172.207 108.817 172.136 109.06 172.205C109.189 172.237 109.281 172.294 109.338 172.339C109.395 172.384 109.42 172.417 109.416 172.42C109.408 172.433 109.293 172.309 109.048 172.259C108.927 172.235 108.776 172.239 108.627 172.298C108.485 172.355 108.313 172.475 108.259 172.632C108.237 172.711 108.306 172.756 108.391 172.745C108.471 172.738 108.558 172.704 108.635 172.679C108.792 172.623 108.929 172.56 109.04 172.501C109.263 172.381 109.387 172.283 109.395 172.293Z" fill="#17282F"/>
<path d="M109.324 172.376C109.322 172.383 109.208 172.338 109.107 172.179C109.058 172.101 109.017 171.995 109.008 171.871C109.008 171.753 109.003 171.595 109.148 171.49C109.231 171.44 109.336 171.497 109.367 171.561C109.407 171.623 109.42 171.692 109.427 171.751C109.443 171.87 109.44 171.979 109.429 172.07C109.406 172.25 109.355 172.352 109.347 172.349C109.335 172.346 109.365 172.239 109.374 172.065C109.378 171.978 109.375 171.874 109.356 171.761C109.346 171.657 109.279 171.509 109.185 171.559C109.098 171.616 109.079 171.763 109.08 171.867C109.084 171.978 109.116 172.077 109.155 172.152C109.235 172.304 109.332 172.365 109.324 172.376Z" fill="#17282F"/>
<path d="M114.542 167.694C114.55 167.706 114.386 167.795 114.178 168.003C113.971 168.208 113.729 168.551 113.627 168.987C113.526 169.422 113.591 169.837 113.687 170.112C113.782 170.391 113.89 170.543 113.877 170.551C113.873 170.553 113.842 170.519 113.796 170.449C113.749 170.379 113.69 170.271 113.635 170.131C113.523 169.853 113.445 169.423 113.551 168.968C113.657 168.514 113.917 168.163 114.14 167.963C114.252 167.862 114.352 167.792 114.424 167.75C114.497 167.707 114.54 167.69 114.542 167.694Z" fill="#17282F"/>
<path d="M112.348 165.999C112.365 165.985 112.754 166.436 113.216 167.006C113.678 167.575 114.039 168.048 114.022 168.062C114.006 168.076 113.618 167.625 113.155 167.055C112.693 166.486 112.331 166.013 112.348 165.999Z" fill="#17282F"/>
<path d="M112.863 170.596C112.878 170.61 112.59 170.926 112.18 171.255C111.772 171.585 111.403 171.799 111.392 171.782C111.38 171.763 111.727 171.521 112.131 171.193C112.537 170.868 112.847 170.58 112.863 170.596Z" fill="#17282F"/>
<path d="M113.856 169.809C113.878 169.811 113.885 169.9 113.911 170.003C113.935 170.106 113.972 170.187 113.954 170.2C113.937 170.213 113.864 170.141 113.835 170.022C113.805 169.903 113.836 169.805 113.856 169.809Z" fill="#17282F"/>
<path d="M113.862 169.046C113.884 169.048 113.893 169.127 113.882 169.222C113.872 169.317 113.846 169.391 113.824 169.389C113.803 169.386 113.794 169.308 113.804 169.213C113.815 169.119 113.84 169.044 113.862 169.046Z" fill="#17282F"/>
<path d="M114.229 168.409C114.239 168.429 114.172 168.482 114.118 168.567C114.062 168.651 114.041 168.734 114.02 168.733C113.998 168.735 113.984 168.629 114.052 168.525C114.12 168.42 114.222 168.389 114.229 168.409Z" fill="#17282F"/>
<path d="M114.531 168.007C114.55 168.018 114.542 168.067 114.512 168.117C114.483 168.166 114.445 168.197 114.426 168.186C114.407 168.176 114.416 168.127 114.445 168.077C114.474 168.027 114.513 167.996 114.531 168.007Z" fill="#17282F"/>
<path d="M109.295 171.485L108.846 170.901L109.295 171.478C109.294 171.481 109.294 171.483 109.295 171.485Z" fill="#A7A9A8"/>
<path d="M109.296 171.478L108.846 170.901L108.82 170.868L113.617 167.615C113.74 167.76 113.842 167.878 113.914 167.956L109.791 171.106C109.846 171.03 109.87 170.972 109.86 170.966C109.859 170.965 109.858 170.965 109.857 170.965C109.831 170.965 109.726 171.093 109.579 171.227C109.439 171.357 109.309 171.448 109.296 171.478Z" fill="#BA2C42"/>
<path d="M109.295 171.485C109.294 171.483 109.294 171.481 109.295 171.478C109.308 171.448 109.439 171.357 109.578 171.227C109.726 171.093 109.831 170.965 109.856 170.965C109.857 170.965 109.858 170.965 109.859 170.966C109.87 170.972 109.845 171.029 109.791 171.106L109.295 171.485Z" fill="#0F191D"/>
<path d="M114.259 167.283L114.206 167.216L114.215 167.211L114.259 167.283Z" fill="#A7A9A8"/>
<path d="M113.942 167.935C113.881 167.85 113.787 167.726 113.672 167.578L114.206 167.216L114.259 167.283L114.428 167.563L113.942 167.935Z" fill="#BA2C42"/>
<path d="M113.914 167.956C113.842 167.878 113.74 167.76 113.617 167.615L113.672 167.578C113.787 167.726 113.881 167.85 113.942 167.935L113.914 167.956Z" fill="#0F191D"/>
<path d="M86.3305 174.686L86.3396 171.234L92.8058 171.21L92.8453 176.261L92.4448 176.288C90.6607 176.393 83.3674 176.699 82.1731 176.342C80.8416 175.943 86.3305 174.686 86.3305 174.686Z" fill="#F99624"/>
<path d="M92.4207 176.297C92.3777 176.297 92.3369 176.297 92.2939 176.297C92.3478 176.293 92.3981 176.29 92.445 176.288L92.8455 176.261C92.711 176.273 92.5691 176.285 92.4207 176.297Z" fill="white"/>
<path d="M86.6299 176.497C88.8462 176.46 91.2434 176.355 92.2932 176.297C92.3362 176.297 92.377 176.297 92.4199 176.297C90.8711 176.416 88.6366 176.485 86.6299 176.497Z" fill="#6C7A7F"/>
<path d="M81.9947 176.296C81.9817 176.289 81.9721 176.282 81.9665 176.274C81.9326 176.231 81.9409 176.182 81.9804 176.13C81.9457 176.192 81.9665 176.249 82.0568 176.296C82.0372 176.296 82.0142 176.296 81.9947 176.296Z" fill="white"/>
<path d="M82.2316 176.357C82.1179 176.339 82.0376 176.319 81.9951 176.296C82.0146 176.296 82.0376 176.296 82.0572 176.296C82.0876 176.312 82.1262 176.327 82.173 176.342C82.1913 176.347 82.2108 176.352 82.2316 176.357Z" fill="#6C7A7F"/>
<path d="M83.1592 175.553C83.4348 175.458 83.6487 175.396 83.6487 175.396C83.6487 175.396 83.6487 175.396 83.6491 175.396C83.4799 175.448 83.3154 175.5 83.1592 175.553Z" fill="white"/>
<path d="M86.0258 176.498C84.2964 176.498 82.8192 176.453 82.2316 176.357C82.2107 176.352 82.1912 176.347 82.173 176.342C82.1261 176.327 82.0875 176.312 82.0571 176.296C81.9668 176.249 81.946 176.192 81.9807 176.13C82.1296 175.935 82.7224 175.703 83.1594 175.553C83.3156 175.5 83.4801 175.448 83.6493 175.396C84.0256 175.411 84.2239 176.226 84.2239 176.226L90.5057 176.146C90.5061 176.169 90.5078 176.181 90.5104 176.181C90.5144 176.181 90.5178 176.169 90.5222 176.145L92.8344 176.116L92.8452 176.261L92.4447 176.288C92.3978 176.29 92.3474 176.293 92.2936 176.297C91.2439 176.355 88.8466 176.46 86.6303 176.497C86.4259 176.498 86.2245 176.498 86.0258 176.498Z" fill="#F57797"/>
<path d="M92.9356 176.111C92.9356 176.114 92.8974 176.119 92.8245 176.124C92.7286 176.13 92.624 176.137 92.5051 176.145C92.1861 176.16 91.7938 176.179 91.3303 176.2C90.3378 176.24 88.966 176.277 87.4506 176.285C85.9347 176.292 84.5625 176.269 83.5696 176.239C83.1065 176.222 82.7138 176.207 82.3944 176.196C82.2759 176.189 82.1709 176.183 82.075 176.178C82.0021 176.173 81.9639 176.169 81.9639 176.166C81.9639 176.164 82.0025 176.162 82.0754 176.162C82.1713 176.163 82.2763 176.164 82.3952 176.165C82.7146 176.17 83.1074 176.176 83.5709 176.184C84.5634 176.2 85.9352 176.214 87.4502 176.207C88.9647 176.199 90.3361 176.171 91.3286 176.145C91.792 176.133 92.1844 176.123 92.5038 176.114C92.6227 176.112 92.7277 176.11 92.824 176.109C92.8969 176.108 92.9356 176.109 92.9356 176.111Z" fill="#17282F"/>
<path d="M84.2266 176.327C84.2027 176.33 84.1832 176.049 84.0044 175.766C83.8312 175.481 83.5886 175.338 83.6021 175.318C83.6064 175.299 83.8842 175.419 84.0712 175.725C84.2617 176.029 84.2461 176.331 84.2266 176.327Z" fill="#17282F"/>
<path d="M86.1295 175.35C86.1113 175.362 86.0193 175.252 85.9243 175.103C85.8292 174.955 85.7672 174.826 85.7854 174.814C85.8036 174.802 85.8956 174.913 85.9907 175.061C86.0853 175.209 86.1478 175.339 86.1295 175.35Z" fill="#17282F"/>
<path d="M86.652 175.071C86.6377 175.087 86.5353 175.02 86.4238 174.92C86.3118 174.821 86.2328 174.727 86.2467 174.711C86.2619 174.695 86.3639 174.762 86.4758 174.862C86.5878 174.961 86.6663 175.055 86.652 175.071Z" fill="#17282F"/>
<path d="M86.9804 174.46C86.9808 174.482 86.8294 174.501 86.6432 174.504C86.4566 174.507 86.3051 174.492 86.3047 174.47C86.3043 174.448 86.4553 174.429 86.6419 174.426C86.8285 174.423 86.98 174.438 86.9804 174.46Z" fill="#17282F"/>
<path d="M87.0923 174.029C87.0993 174.048 86.9348 174.123 86.7161 174.14C86.4965 174.158 86.3229 174.11 86.3272 174.09C86.3307 174.068 86.5017 174.079 86.71 174.062C86.9179 174.046 87.0849 174.007 87.0923 174.029Z" fill="#17282F"/>
<path d="M85.9073 174.788C85.9082 174.796 85.7485 174.816 85.492 174.787C85.364 174.772 85.2125 174.742 85.0494 174.691C84.9682 174.663 84.8836 174.641 84.7959 174.588C84.7542 174.56 84.7083 174.522 84.6922 174.459C84.6748 174.397 84.7078 174.327 84.7547 174.293C85.1509 174.085 85.5493 174.307 85.6977 174.512C85.7793 174.616 85.8166 174.718 85.8344 174.788C85.8513 174.859 85.85 174.9 85.8457 174.9C85.8309 174.906 85.8166 174.737 85.6547 174.547C85.5753 174.453 85.4543 174.363 85.2989 174.318C85.1522 174.275 84.943 174.264 84.8037 174.354C84.7382 174.403 84.7642 174.48 84.8376 174.523C84.9066 174.568 84.9951 174.594 85.0715 174.622C85.2295 174.676 85.3761 174.71 85.5002 174.732C85.7489 174.775 85.9073 174.775 85.9073 174.788Z" fill="#17282F"/>
<path d="M85.8006 174.808C85.7945 174.813 85.7329 174.707 85.7516 174.52C85.7611 174.428 85.7941 174.32 85.8635 174.216C85.9369 174.124 86.0302 173.996 86.2081 174.003C86.3049 174.015 86.3526 174.124 86.3374 174.194C86.33 174.267 86.2979 174.33 86.2676 174.38C86.2064 174.484 86.1369 174.568 86.0723 174.632C85.9425 174.76 85.8401 174.809 85.8353 174.801C85.8284 174.791 85.9178 174.726 86.0315 174.595C86.0883 174.529 86.1499 174.445 86.2046 174.344C86.2615 174.256 86.2997 174.099 86.1955 174.08C86.0914 174.07 85.9859 174.175 85.9225 174.258C85.8574 174.348 85.8219 174.445 85.8062 174.528C85.775 174.698 85.814 174.805 85.8006 174.808Z" fill="#17282F"/>
<path d="M92.7964 174.343C92.7959 174.349 92.7651 174.347 92.7087 174.346C92.6271 174.343 92.4921 174.341 92.3194 174.362C92.03 174.395 91.6277 174.516 91.2788 174.796C90.9298 175.077 90.7263 175.443 90.6313 175.719C90.5336 175.997 90.5254 176.183 90.5106 176.181C90.5058 176.181 90.5032 176.134 90.5098 176.051C90.5158 175.967 90.5354 175.846 90.5787 175.701C90.6621 175.414 90.866 175.028 91.2297 174.735C91.5938 174.443 92.0148 174.327 92.3138 174.307C92.4644 174.295 92.5863 174.302 92.6692 174.315C92.7525 174.326 92.7972 174.338 92.7964 174.343Z" fill="#17282F"/>
<path d="M92.1146 171.655C92.1363 171.655 92.1637 172.249 92.1762 172.983C92.1888 173.717 92.181 174.312 92.1593 174.312C92.1381 174.312 92.1103 173.718 92.0981 172.984C92.0851 172.251 92.0929 171.656 92.1146 171.655Z" fill="#17282F"/>
<path d="M89.684 175.591C89.6871 175.611 89.2661 175.683 88.7406 175.689C88.2155 175.697 87.7928 175.638 87.7949 175.617C87.7971 175.594 88.2189 175.619 88.7401 175.611C89.2605 175.604 89.6814 175.568 89.684 175.591Z" fill="#17282F"/>
<path d="M90.9518 175.584C90.9678 175.6 90.9179 175.674 90.8749 175.771C90.8311 175.867 90.8094 175.954 90.7868 175.952C90.7664 175.952 90.753 175.85 90.8033 175.738C90.8537 175.627 90.9379 175.568 90.9518 175.584Z" fill="#17282F"/>
<path d="M91.4271 174.988C91.4427 175.003 91.401 175.07 91.3346 175.138C91.2682 175.206 91.2014 175.249 91.1858 175.234C91.1706 175.219 91.2118 175.152 91.2786 175.083C91.345 175.015 91.4119 174.973 91.4271 174.988Z" fill="#17282F"/>
<path d="M92.1088 174.713C92.1045 174.736 92.0185 174.735 91.9235 174.768C91.828 174.8 91.7603 174.853 91.7434 174.839C91.726 174.827 91.7803 174.735 91.8983 174.695C92.0159 174.653 92.1153 174.693 92.1088 174.713Z" fill="#17282F"/>
<path d="M92.5945 174.583C92.6023 174.603 92.5654 174.637 92.512 174.657C92.4582 174.679 92.4087 174.68 92.4005 174.659C92.3926 174.639 92.4295 174.606 92.4834 174.584C92.5367 174.564 92.5866 174.563 92.5945 174.583Z" fill="#17282F"/>
<path d="M86.3271 174.09L86.3337 173.334L86.3319 174.085C86.3289 174.086 86.3276 174.088 86.3271 174.09Z" fill="#A7A9A8"/>
<path d="M86.9778 174.089C87.052 174.065 87.0958 174.039 87.0924 174.029C87.0906 174.024 87.0824 174.023 87.068 174.023C87.0134 174.023 86.8745 174.05 86.71 174.062C86.5199 174.078 86.3607 174.069 86.332 174.085L86.3338 173.334L86.3342 173.311L92.1039 173.273C92.1117 173.609 92.1225 173.897 92.1338 174.084L86.9778 174.089Z" fill="#BA2C42"/>
<path d="M86.3271 174.09C86.3276 174.088 86.3289 174.086 86.3319 174.085C86.3606 174.069 86.5198 174.078 86.7099 174.062C86.8744 174.049 87.0133 174.023 87.0679 174.023C87.0823 174.023 87.0905 174.024 87.0922 174.029C87.0957 174.039 87.0519 174.065 86.9777 174.089L86.3271 174.09Z" fill="#0F191D"/>
<path d="M92.8288 174.083L92.8223 173.272L92.8457 174.083H92.8288Z" fill="#A7A9A8"/>
<path d="M92.1777 174.084C92.1829 173.897 92.1838 173.609 92.1803 173.273L92.8218 173.269V173.272L92.8283 174.083L92.1777 174.084Z" fill="#BA2C42"/>
<path d="M92.1335 174.084C92.1222 173.897 92.1113 173.609 92.1035 173.273L92.1799 173.273C92.1834 173.609 92.1825 173.897 92.1773 174.084H92.1335Z" fill="#0F191D"/>
<path d="M102.291 115.109L99.7015 122.905C99.0023 125.01 97.1627 125.371 94.9438 125.371H80.542V122.14L93.6996 120.261L96.8351 112.251L102.291 115.109Z" fill="#C0776A"/>
<path d="M78.9586 121.468L77.816 120.928C77.816 120.928 76.5848 118.547 76.301 118.642C76.0176 118.737 75.936 119.438 76.4303 120.532L74.9123 120.098C74.9123 120.098 71.621 121.619 71.7664 121.824C71.9122 122.029 72.1817 122.514 72.8986 122.147C73.6156 121.78 74.5547 121.35 74.5547 121.35L76.3279 121.857L74.0413 122.147L71.8905 124.104C71.8905 124.104 72.597 124.632 73.2059 124.071L78.792 125.272L80.5418 125.371V122.14L78.9586 121.468Z" fill="#C0776A"/>
<path d="M73.2057 124.071C73.2295 124.087 73.3337 123.922 73.5346 123.703C73.6362 123.595 73.7724 123.483 73.9413 123.388C74.1036 123.298 74.3149 123.258 74.5445 123.231C75.4753 123.121 76.227 122.993 76.2209 122.945C76.2148 122.897 75.4558 122.947 74.5232 123.057C74.2893 123.085 74.0511 123.132 73.8605 123.249C73.6783 123.361 73.5381 123.495 73.4409 123.622C73.2508 123.878 73.1892 124.061 73.2057 124.071Z" fill="#B85549"/>
<path d="M74.0804 124.296C74.1017 124.296 74.1191 124.18 74.2757 124.147C74.4354 124.118 74.6897 124.087 74.9545 124.06C75.4909 124.006 75.9318 124.01 75.9365 123.961C75.9422 123.914 75.493 123.831 74.9371 123.887C74.6576 123.916 74.4198 123.961 74.2345 124.031C74.1386 124.07 74.0765 124.148 74.0648 124.206C74.0501 124.266 74.07 124.298 74.0804 124.296Z" fill="#B85549"/>
<path d="M103.511 113.409L102.404 117.161L95.374 113.979C95.6266 113.193 96.7892 109.694 99.0146 104.141C100.255 101.048 103.013 98.8147 106.301 98.2675C108.602 97.8852 111.105 97.5866 113.032 97.6078C116.974 97.6512 122.776 100.115 123.556 103.979C124.151 106.929 123.577 112.136 123.577 118.463L123.063 130.552L102.864 131.238L103.511 113.409Z" fill="#F99624"/>
<path d="M120.74 132.157L108.581 131.42C108.588 131.293 108.594 131.167 108.601 131.043L121.002 130.622L120.74 132.157Z" fill="#A7A9A8"/>
<path d="M108.601 131.043C108.828 126.661 109.036 123.704 110.055 119.351C110.33 118.176 110.713 116.932 111.666 116.192C112.449 115.583 113.438 115.441 114.453 115.441C114.994 115.441 115.542 115.481 116.07 115.513C117.78 115.614 119.5 115.883 121.201 115.883C121.991 115.883 122.777 115.825 123.556 115.665L121.002 130.622L108.601 131.043Z" fill="#DE7700"/>
<path d="M102.993 100.288C102.991 100.306 103.195 100.318 103.53 100.449C103.86 100.584 104.313 100.872 104.693 101.391C105.079 101.903 105.339 102.646 105.389 103.496C105.448 104.345 105.322 105.286 105.177 106.265C104.864 108.223 104.388 109.96 104.048 111.216C103.882 111.823 103.744 112.324 103.64 112.704C103.545 113.056 103.498 113.252 103.51 113.256C103.521 113.259 103.59 113.069 103.705 112.724C103.819 112.377 103.979 111.875 104.167 111.25C104.538 110.002 105.035 108.264 105.349 106.292C105.495 105.308 105.619 104.358 105.55 103.484C105.49 102.613 105.206 101.839 104.793 101.317C104.385 100.788 103.901 100.505 103.554 100.385C103.378 100.328 103.237 100.301 103.141 100.292C103.044 100.283 102.994 100.282 102.993 100.288Z" fill="#17282F"/>
<path d="M95.594 113.021C95.5831 113.042 95.9598 113.262 96.5843 113.589C97.2084 113.916 98.0824 114.346 99.0627 114.789C100.043 115.231 100.944 115.601 101.603 115.852C102.262 116.104 102.676 116.24 102.684 116.218C102.693 116.195 102.295 116.018 101.65 115.737C101.004 115.457 100.113 115.07 99.1343 114.629C98.1566 114.188 97.2765 113.776 96.639 113.478C96.0015 113.18 95.6053 112.999 95.594 113.021Z" fill="#17282F"/>
<path d="M92.3732 132.157C88.9318 134.034 87.6246 138.32 89.4334 141.798L107.015 171.984L115.126 167.085L101.474 139.831L111.369 133.372" fill="#17282F"/>
<path d="M113.779 130.66L89.6442 131.514C85.7263 131.653 82.6399 134.901 82.7011 138.821L83.7031 173.291L93.8533 173.269L93.5144 140.677L113.779 140.144V130.66Z" fill="#17282F"/>
<path d="M93.5152 141.856C93.523 141.856 93.533 141.965 93.5443 142.174C93.5542 142.405 93.5677 142.71 93.5837 143.089C93.6137 143.883 93.6445 145.033 93.6749 146.455C93.7348 149.296 93.776 153.224 93.7977 157.561C93.8198 161.888 93.8398 165.804 93.8545 168.668C93.8624 170.07 93.8689 171.214 93.8736 172.034C93.8723 172.414 93.871 172.718 93.8702 172.949C93.8671 173.158 93.8615 173.269 93.8541 173.269C93.8459 173.269 93.8363 173.159 93.8246 172.95C93.8151 172.719 93.802 172.415 93.7855 172.035C93.7552 171.241 93.7244 170.091 93.6948 168.67C93.6341 165.828 93.5933 161.9 93.5716 157.562C93.5495 153.236 93.5295 149.321 93.5148 146.457C93.5069 145.054 93.5004 143.91 93.4961 143.091C93.497 142.711 93.4978 142.406 93.4987 142.175C93.5022 141.966 93.5074 141.856 93.5152 141.856Z" fill="#33535F"/>
<path d="M124.235 108.785H116.933C113.994 108.785 111.612 111.167 111.612 114.106V139.581H97.0236C94.9879 139.581 93.3379 141.231 93.3379 143.267H126.647L126.646 143.245C128.265 143.176 129.557 141.846 129.557 140.21V114.106C129.557 111.167 127.174 108.785 124.235 108.785Z" fill="#33535F"/>
<path d="M113.734 109.625C113.796 109.625 113.847 117.111 113.847 126.345C113.847 135.58 113.796 143.065 113.734 143.065C113.672 143.065 113.621 135.58 113.621 126.345C113.621 117.111 113.672 109.625 113.734 109.625Z" fill="#17282F"/>
<path d="M112.811 170.005V143.281H110.437V170.005C108.988 172.862 105.581 174.795 101.431 176.378H122.593C118.295 174.631 114.417 173.291 112.811 170.005Z" fill="#33535F"/>
</g>
</g>
<defs>
<filter id="filter0_d_367_28330" x="0" y="0" width="199" height="185" filterUnits="userSpaceOnUse" color-interpolation-filters="sRGB">
<feFlood flood-opacity="0" result="BackgroundImageFix"/>
<feColorMatrix in="SourceAlpha" type="matrix" values="0 0 0 0 0 0 0 0 0 0 0 0 0 0 0 0 0 0 127 0" result="hardAlpha"/>
<feOffset dy="4"/>
<feGaussianBlur stdDeviation="2"/>
<feComposite in2="hardAlpha" operator="out"/>
<feColorMatrix type="matrix" values="0 0 0 0 0 0 0 0 0 0 0 0 0 0 0 0 0 0 0.25 0"/>
<feBlend mode="normal" in2="BackgroundImageFix" result="effect1_dropShadow_367_28330"/>
<feBlend mode="normal" in="SourceGraphic" in2="effect1_dropShadow_367_28330" result="shape"/>
</filter>
<clipPath id="clip0_367_28330">
<rect x="4" width="191" height="177" rx="88.5" fill="white"/>
</clipPath>
</defs>
</svg>
