<svg width="256" height="187" viewBox="0 0 256 187" fill="none" xmlns="http://www.w3.org/2000/svg">
<g clip-path="url(#clip0_386_924)">
<path d="M247 219H0V-27.9996H247V219Z" fill="white"/>
<path d="M213.902 95.5C213.902 145.428 173.427 185.902 123.5 185.902C73.572 185.902 33.0977 145.428 33.0977 95.5C33.0977 45.5728 73.572 5.09814 123.5 5.09814C173.427 5.09814 213.902 45.5728 213.902 95.5Z" fill="#F2E6DC"/>
<path d="M149.934 60.661C148.792 63.6807 146.392 66.0806 143.373 67.2219C133.116 71.0993 123.55 61.5321 127.427 51.2748C128.569 48.2562 130.97 45.8563 133.988 44.715C144.245 40.8377 153.811 50.4048 149.934 60.661ZM157.678 52.8025H155.808C155.64 51.8901 155.401 51.0023 155.098 50.1469L156.717 49.211L153.55 43.7267L151.926 44.6648C151.331 43.9668 150.682 43.3168 149.984 42.7216L150.921 41.099L145.438 37.9319L144.502 39.5523C143.646 39.2485 142.759 39.0095 141.847 38.842V36.9704H135.515V38.842C134.602 39.0095 133.716 39.2485 132.859 39.5523L131.924 37.9319L126.44 41.099L127.376 42.7216C126.68 43.3168 126.029 43.9668 125.434 44.6648L123.811 43.7267L120.645 49.211L122.265 50.1469C121.96 51.0023 121.721 51.8901 121.554 52.8025H119.683V59.1344H121.554C121.721 60.0468 121.96 60.9335 122.265 61.7901L120.645 62.7248L123.811 68.2091L125.434 67.2722C126.029 67.9701 126.68 68.619 127.376 69.2153L126.44 70.8379L131.924 74.0039L132.859 72.3846C133.716 72.6884 134.602 72.9285 135.515 73.0949V74.9666H141.847V73.0949C142.759 72.9285 143.646 72.6884 144.502 72.3846L145.438 74.0039L150.921 70.8379L149.984 69.2153C150.682 68.619 151.331 67.9701 151.926 67.2722L153.55 68.2091L156.717 62.7248L155.098 61.7901C155.401 60.9335 155.64 60.0468 155.808 59.1344H157.678V52.8025Z" fill="white"/>
<path d="M138.678 70.0396C130.92 70.0396 124.606 63.7276 124.606 55.9684C124.606 52.579 125.83 49.3036 128.05 46.748C130.248 44.2173 133.273 42.5498 136.57 42.0547C136.688 42.0384 136.801 42.1188 136.818 42.2382C136.836 42.3576 136.754 42.4683 136.635 42.4857C130.026 43.478 125.043 49.2754 125.043 55.9684C125.043 63.4877 131.159 69.6043 138.678 69.6043C144.89 69.6043 150.317 65.4093 151.876 59.4045C151.906 59.2884 152.025 59.2178 152.141 59.2482C152.258 59.2786 152.328 59.398 152.297 59.5142C150.689 65.7111 145.088 70.0396 138.678 70.0396Z" fill="#F2E6DC"/>
<path d="M68.058 34.9908L68.0499 41.2251C68.0455 44.6674 65.2511 47.4548 61.8084 47.4503C58.3657 47.4458 55.5786 44.6515 55.583 41.2081L55.5911 34.975L68.058 34.9908Z" fill="white"/>
<path d="M45.7051 21.727C45.6936 30.6402 52.9096 37.8749 61.8229 37.8867C70.736 37.8985 77.9709 30.6821 77.9826 21.7689C77.9941 12.8558 70.7779 5.62102 61.8646 5.60924C52.9515 5.59745 45.7165 12.8139 45.7051 21.727Z" fill="#F99624"/>
<path d="M61.842 43.5697C61.8317 43.5697 61.8224 43.5697 61.8138 43.5697C60.2073 43.5675 58.6954 43.4754 57.5568 43.3117C55.8495 43.0655 55.6198 42.7576 55.6201 42.4898C55.6202 42.3695 55.7178 42.2719 55.8379 42.2719C55.838 42.2719 55.8382 42.2719 55.8383 42.2719C55.9486 42.2719 56.0397 42.3543 56.0538 42.4605C56.2882 42.737 58.4415 43.1295 61.8145 43.1338C61.8332 43.1338 61.8521 43.1338 61.8708 43.1338C65.2112 43.1338 67.3427 42.75 67.5766 42.4757C67.5911 42.3695 67.6823 42.2882 67.7926 42.2882C67.7926 42.2882 67.7927 42.2882 67.7928 42.2882C67.9131 42.2882 68.0106 42.3857 68.0104 42.5061C68.009 43.5328 62.597 43.5697 61.842 43.5697Z" fill="#363E44"/>
<path d="M61.8754 40.8359C61.8568 40.8359 61.8384 40.8359 61.8197 40.8359C61.1856 40.8348 55.6248 40.7985 55.626 39.757C55.626 39.6359 55.7235 39.539 55.8439 39.539C55.8439 39.539 55.8439 39.539 55.844 39.539C55.9543 39.539 56.0456 39.6216 56.0597 39.7283C56.2942 40.0036 58.4474 40.3966 61.8203 40.401C61.8391 40.401 61.8579 40.401 61.8766 40.401C65.2171 40.401 67.3487 40.0168 67.5826 39.7427C67.597 39.6359 67.6881 39.5544 67.7985 39.5544C67.7985 39.5544 67.7985 39.5544 67.7986 39.5544C67.9188 39.5544 68.0163 39.6524 68.0162 39.7724C68.0158 40.041 67.7853 40.3482 66.0775 40.5893C64.9514 40.749 63.461 40.8359 61.8754 40.8359Z" fill="#363E44"/>
<path d="M63.9836 34.1791C63.955 34.1791 63.9258 34.173 63.898 34.1609C63.7873 34.1137 63.7359 33.9867 63.7832 33.8754L68.8704 21.9637C68.9177 21.8536 69.0457 21.8016 69.1562 21.8487C69.2669 21.8959 69.3183 22.0242 69.271 22.1343L64.1839 34.046C64.1486 34.1295 64.0682 34.1791 63.9836 34.1791Z" fill="#363E44"/>
<path d="M59.6707 34.1747C59.5858 34.1747 59.5051 34.1239 59.4701 34.0416L54.4138 22.1167C54.3669 22.0054 54.4185 21.8783 54.5294 21.8311C54.6397 21.784 54.7681 21.836 54.815 21.9461L59.8713 33.871C59.9181 33.9823 59.8663 34.1093 59.7555 34.1565C59.7279 34.1686 59.699 34.1747 59.6707 34.1747Z" fill="#363E44"/>
<path d="M63.0716 17.4408C63.0367 17.4408 63.0019 17.4421 62.9673 17.4458C62.3137 17.5103 61.8415 18.114 61.6176 18.6569C61.0974 19.9176 61.4482 21.482 62.45 22.4068C63.3557 21.9357 64.0892 21.1262 64.3964 20.1469C64.6062 19.4788 64.5921 18.8317 64.3567 18.3284C64.1096 17.8003 63.5818 17.4408 63.0716 17.4408ZM64.7432 23.7034C63.8975 23.7034 63.0501 23.4357 62.3816 22.9188C61.7234 23.2076 60.9983 23.3402 60.2786 23.2671C58.3242 23.07 56.6363 21.3841 56.4357 19.4304C56.4233 19.3102 56.5105 19.2036 56.6301 19.1912C56.7504 19.18 56.8567 19.2656 56.869 19.3858C57.0492 21.1411 58.5662 22.656 60.3223 22.8345C60.9012 22.8927 61.483 22.8035 62.0226 22.5977C60.9931 21.5428 60.6506 19.8581 61.2149 18.4908C61.487 17.8313 62.079 17.0962 62.9246 17.0119C63.6561 16.9413 64.4062 17.4061 64.7514 18.1437C65.033 18.7462 65.0545 19.5048 64.812 20.2784C64.49 21.3048 63.7464 22.1626 62.8187 22.6969C63.8529 23.3935 65.2879 23.4691 66.3764 22.8506C66.4812 22.7911 66.614 22.827 66.6734 22.9311C66.7328 23.0365 66.6964 23.1692 66.5919 23.2287C66.0304 23.5485 65.3874 23.7034 64.7432 23.7034Z" fill="white"/>
<path d="M59.1948 167.723H52.6582V119.655H59.1948V167.723Z" fill="#D3BBA3"/>
<path d="M101.321 139.363C101.321 134.962 100.132 131.353 97.7553 128.536C95.3783 125.718 92.1868 124.309 88.1814 124.309C84.3956 124.309 81.3749 125.718 79.1191 128.536C76.8628 131.353 75.7352 134.962 75.7352 139.363V147.981C75.7352 152.427 76.8628 156.058 79.1191 158.875C81.3749 161.692 84.3956 163.1 88.1814 163.1C92.209 163.1 95.4057 161.697 97.7719 158.891C100.137 156.085 101.321 152.448 101.321 147.981V139.363ZM107.825 147.981C107.825 153.856 106.003 158.732 102.361 162.605C98.7179 166.479 93.9917 168.415 88.1814 168.415C82.5691 168.415 78.0075 166.479 74.4972 162.605C70.9863 158.732 69.2314 153.856 69.2314 147.981V139.429C69.2314 133.576 70.9863 128.701 74.4972 124.805C78.0075 120.909 82.5691 118.961 88.1814 118.961C93.9917 118.961 98.7179 120.903 102.361 124.788C106.003 128.673 107.825 133.553 107.825 139.429V147.981Z" fill="#D3BBA3"/>
<path d="M149.189 124.771H133.739V167.723H127.236V124.771H111.818V119.655H149.189V124.771Z" fill="#D3BBA3"/>
<path d="M208.234 141.384H139.906V145.32H208.234V141.384Z" fill="#E6D0BE"/>
<path d="M140.122 182.535H208.015V141.602H140.122V182.535ZM208.232 182.971H139.905C139.785 182.971 139.688 182.874 139.688 182.753V141.384C139.688 141.264 139.785 141.167 139.905 141.167H208.232C208.353 141.167 208.451 141.264 208.451 141.384V182.753C208.451 182.874 208.353 182.971 208.232 182.971Z" fill="#E6D0BE"/>
<path d="M143.417 143.379C143.417 143.873 143.017 144.275 142.522 144.275C142.028 144.275 141.627 143.873 141.627 143.379C141.627 142.884 142.028 142.484 142.522 142.484C143.017 142.484 143.417 142.884 143.417 143.379Z" fill="white"/>
<path d="M146.311 143.379C146.311 143.873 145.91 144.275 145.416 144.275C144.921 144.275 144.521 143.873 144.521 143.379C144.521 142.884 144.921 142.484 145.416 142.484C145.91 142.484 146.311 142.884 146.311 143.379Z" fill="white"/>
<path d="M149.202 143.379C149.202 143.873 148.801 144.275 148.307 144.275C147.813 144.275 147.412 143.873 147.412 143.379C147.412 142.884 147.813 142.484 148.307 142.484C148.801 142.484 149.202 142.884 149.202 143.379Z" fill="white"/>
<path d="M162.523 173.283C162.523 175.074 161.07 176.526 159.28 176.526C157.489 176.526 156.037 175.074 156.037 173.283C156.037 171.492 157.489 170.04 159.28 170.04C161.07 170.04 162.523 171.492 162.523 173.283Z" fill="#D87355"/>
<path d="M203.528 170.257H164.272C164.152 170.257 164.055 170.16 164.055 170.04C164.055 169.919 164.152 169.821 164.272 169.821H203.528C203.649 169.821 203.746 169.919 203.746 170.04C203.746 170.16 203.649 170.257 203.528 170.257Z" fill="#363E44"/>
<path d="M203.527 173.501H176.998C176.878 173.501 176.78 173.403 176.78 173.283C176.78 173.163 176.878 173.065 176.998 173.065H203.527C203.649 173.065 203.746 173.163 203.746 173.283C203.746 173.403 203.649 173.501 203.527 173.501Z" fill="#363E44"/>
<path d="M173.177 173.501H164.271C164.151 173.501 164.054 173.403 164.054 173.283C164.054 173.163 164.151 173.065 164.271 173.065H173.177C173.297 173.065 173.395 173.163 173.395 173.283C173.395 173.403 173.297 173.501 173.177 173.501Z" fill="#363E44"/>
<path d="M203.528 176.744H192.761C192.641 176.744 192.544 176.646 192.544 176.526C192.544 176.405 192.641 176.309 192.761 176.309H203.528C203.649 176.309 203.746 176.405 203.746 176.526C203.746 176.646 203.649 176.744 203.528 176.744Z" fill="#363E44"/>
<path d="M185.602 176.744H164.27C164.151 176.744 164.054 176.646 164.054 176.526C164.054 176.405 164.151 176.309 164.27 176.309H185.602C185.723 176.309 185.82 176.405 185.82 176.526C185.82 176.646 185.723 176.744 185.602 176.744Z" fill="#363E44"/>
<path d="M200.82 162.884H155.404V125.569H200.82V162.884Z" fill="#F99624"/>
<path d="M178.98 149.606V154.207H177.239V149.606C176.289 149.251 175.609 148.338 175.609 147.264C175.609 145.883 176.73 144.763 178.111 144.763C179.491 144.763 180.61 145.883 180.61 147.264C180.61 148.338 179.931 149.251 178.98 149.606ZM167.202 140.518V149.021C167.202 155.045 172.085 159.928 178.111 159.928C184.135 159.928 189.018 155.045 189.018 149.021V140.518H167.202Z" fill="white"/>
<path d="M187.818 138.45C187.697 138.45 187.599 138.352 187.599 138.232C187.599 132.999 183.343 128.743 178.112 128.743C172.879 128.743 168.622 132.999 168.622 138.232C168.622 138.352 168.524 138.45 168.404 138.45C168.283 138.45 168.188 138.352 168.188 138.232C168.188 132.759 172.639 128.307 178.112 128.307C183.583 128.307 188.035 132.759 188.035 138.232C188.035 138.352 187.938 138.45 187.818 138.45Z" fill="#363E44"/>
<path d="M207.122 93.3424C207.122 109.366 194.133 122.354 178.111 122.354C162.088 122.354 149.098 109.366 149.098 93.3424C149.098 77.3197 162.088 64.3307 178.111 64.3307C194.133 64.3307 207.122 77.3197 207.122 93.3424Z" fill="white"/>
<path d="M175.256 103.683C175.256 106.654 172.847 109.064 169.874 109.064C166.902 109.064 164.491 106.654 164.491 103.683C164.491 100.71 166.902 98.299 169.874 98.299C172.847 98.299 175.256 100.71 175.256 103.683Z" fill="#D87355"/>
<path d="M181.236 103.9C181.115 103.9 181.018 103.803 181.018 103.683C181.018 97.5378 176.018 92.5384 169.872 92.5384C169.752 92.5384 169.655 92.4404 169.655 92.3202C169.655 92.1988 169.752 92.102 169.872 92.102C176.258 92.102 181.453 97.2973 181.453 103.683C181.453 103.803 181.355 103.9 181.236 103.9Z" fill="#363E44"/>
<path d="M190.327 103.9C190.207 103.9 190.11 103.803 190.11 103.682C190.11 92.5243 181.033 83.4472 169.875 83.4472C169.754 83.4472 169.657 83.3501 169.657 83.2297C169.657 83.1093 169.754 83.0111 169.875 83.0111C181.272 83.0111 190.546 92.2847 190.546 103.682C190.546 103.803 190.448 103.9 190.327 103.9Z" fill="#363E44"/>
<path d="M199.417 103.9C199.295 103.9 199.197 103.803 199.197 103.683C199.197 87.5126 186.042 74.3577 169.873 74.3577C169.752 74.3577 169.655 74.2597 169.655 74.1409C169.655 74.0196 169.752 73.9216 169.873 73.9216C186.282 73.9216 199.633 87.2726 199.633 103.683C199.633 103.803 199.535 103.9 199.417 103.9Z" fill="#363E44"/>
<path d="M153.394 173.794H88.5273C88.4071 173.794 88.3096 173.696 88.3096 173.577V159.255C88.3096 159.134 88.4071 159.037 88.5273 159.037C88.6477 159.037 88.7452 159.134 88.7452 159.255V173.358H153.394C153.513 173.358 153.611 173.456 153.611 173.577C153.611 173.696 153.513 173.794 153.394 173.794Z" fill="#E6D0BE"/>
<path d="M125.987 79.0231L127.233 110.913H79.9224L78.5078 80.2887L78.4775 79.6347L125.987 79.0231Z" fill="#776E42"/>
<path d="M105.772 110.235L90.9927 100.815L85.6738 115.444L100.207 118.606L105.772 110.235Z" fill="#84524D"/>
<path d="M131.269 118.498H99.3564L101.499 106.648C101.499 106.648 115.036 100.815 129.831 109.474C129.831 109.474 133.478 113.932 131.269 118.498Z" fill="#D3BBA3"/>
<path d="M108.588 115.617C108.469 115.617 108.371 115.519 108.371 115.398V108.133C108.371 108.012 108.469 107.914 108.588 107.914C108.709 107.914 108.807 108.012 108.807 108.133V115.398C108.807 115.519 108.709 115.617 108.588 115.617Z" fill="#363E44"/>
<path d="M110.653 115.617C110.532 115.617 110.435 115.519 110.435 115.398V108.133C110.435 108.012 110.532 107.914 110.653 107.914C110.772 107.914 110.87 108.012 110.87 108.133V115.398C110.87 115.519 110.772 115.617 110.653 115.617Z" fill="#363E44"/>
<path d="M98.5077 98.294L89.543 118.498C89.543 118.498 64.6126 113.24 47.2727 102.392C41.2137 98.6023 39.2586 90.6765 42.8674 84.5075C42.9189 84.4195 42.9708 84.3316 43.0232 84.2446C46.1075 79.0893 52.352 76.7536 58.1064 78.4787C67.3221 81.2421 84.5109 87.4181 98.5077 98.294Z" fill="#8B865C"/>
<path d="M97.791 110.235L112.57 100.815L117.889 115.444L103.356 118.606L97.791 110.235Z" fill="#84524D"/>
<path d="M72.6357 118.498H104.208L102.064 107.302C102.064 107.302 90.3894 100.51 76.4478 105.739C76.4478 105.739 74.5899 109.711 72.6357 118.498Z" fill="white"/>
<path d="M94.9747 115.617C94.8543 115.617 94.7568 115.519 94.7568 115.398V108.133C94.7568 108.012 94.8543 107.914 94.9747 107.914C95.095 107.914 95.1925 108.012 95.1925 108.133V115.398C95.1925 115.519 95.095 115.617 94.9747 115.617Z" fill="#363E44"/>
<path d="M92.9111 115.617C92.7909 115.617 92.6934 115.519 92.6934 115.398V108.133C92.6934 108.012 92.7909 107.914 92.9111 107.914C93.0315 107.914 93.129 108.012 93.129 108.133V115.398C93.129 115.519 93.0315 115.617 92.9111 115.617Z" fill="#363E44"/>
<path d="M105.054 98.2931L114.018 118.497C114.018 118.497 138.949 113.24 156.289 102.392C162.348 98.6015 164.303 90.6755 160.694 84.5065C160.643 84.4188 160.591 84.3311 160.538 84.2445C157.455 79.0885 151.209 76.753 145.456 78.4777C136.239 81.2416 119.051 87.4177 105.054 98.2931Z" fill="#8B865C"/>
<path d="M68.1183 86.6611L65.6143 86.2209C61.1298 85.435 58.3049 80.9617 59.5006 76.5694C60.6405 72.3816 62.2851 67.2522 64.4321 62.8121C66.5413 58.4509 70.5717 55.3251 75.3272 54.4011C85.3539 52.4515 105.733 49.7846 126.761 54.6513C131.091 55.6542 134.789 58.4779 136.864 62.4083C138.647 65.7843 140.734 70.323 142.19 75.3257C143.569 80.0669 140.68 84.998 135.886 86.1825L124.689 83.7512L68.1183 86.6611Z" fill="#F99624"/>
<path d="M62.1457 77.3989C61.9617 78.0608 61.8503 78.7821 61.8431 79.5626C61.8107 83.0858 64.059 86.2306 67.3464 87.4972L83.7619 91.876L87.3357 79.6891L70.4413 73.2888C67.0071 71.9876 63.1293 73.8608 62.1457 77.3989Z" fill="#84524D"/>
<path d="M139.034 81.2462C138.806 81.8943 138.484 82.5493 138.042 83.1925C136.05 86.0982 132.405 87.3866 128.984 86.5399L112.441 82.4466L117.08 68.6847L134.592 73.1228C138.152 74.0259 140.257 77.7832 139.034 81.2462Z" fill="#84524D"/>
<path d="M122.95 89.4396H80.3428V63.8948H122.95V89.4396Z" fill="#363E44"/>
<path d="M122.95 92.7504H80.3428V90.1362H122.95V92.7504Z" fill="#363E44"/>
<path d="M99.548 77.6992H103.744V73.5031H99.548V77.6992ZM103.961 78.1349H99.3307C99.2101 78.1349 99.1123 78.0371 99.1123 77.9165V73.2858C99.1123 73.1652 99.2101 73.0674 99.3307 73.0674H103.961C104.082 73.0674 104.18 73.1652 104.18 73.2858V77.9165C104.18 78.0371 104.082 78.1349 103.961 78.1349Z" fill="#40484C"/>
<path d="M121.107 66.1642H82.1866C82.0664 66.1642 81.9688 66.0674 81.9688 65.9469C81.9688 65.8263 82.0664 65.7285 82.1866 65.7285H121.107C121.227 65.7285 121.324 65.8263 121.324 65.9469C121.324 66.0674 121.227 66.1642 121.107 66.1642Z" fill="#40484C"/>
<path d="M95.6646 43.136C96.6057 44.4069 96.4925 46.0851 95.4115 46.8866C94.3305 47.6871 92.6913 47.307 91.7502 46.0372C90.8091 44.7673 90.9225 43.088 92.0032 42.2865C93.0842 41.4861 94.7234 41.8661 95.6646 43.136Z" fill="#84524D"/>
<path d="M107.285 42.5462C106.476 43.9052 106.76 45.564 107.917 46.2512C109.073 46.9384 110.665 46.3934 111.473 45.0344C112.28 43.6754 111.998 42.0166 110.84 41.3294C109.684 40.6422 108.092 41.1871 107.285 42.5462Z" fill="#84524D"/>
<path d="M108.659 39.4619C108.449 35.4296 105.01 32.3307 100.978 32.5402C96.9457 32.7498 93.8466 36.1877 94.0559 40.22L94.3017 44.9532L108.904 44.1951L108.659 39.4619Z" fill="#363E44"/>
<path d="M101.053 58.6928C98.2304 58.5632 96.047 56.1695 96.1764 53.3471L96.6506 43.0079L106.873 43.4765L106.399 53.8157C106.269 56.6381 103.876 58.8223 101.053 58.6928Z" fill="#84524D"/>
<path d="M108.612 43.9072C108.843 48.4633 105.888 52.3162 102.01 52.5138C98.1327 52.7113 94.8012 49.1776 94.5694 44.6215C94.3375 40.0654 97.293 37.4637 101.17 37.2661C105.048 37.0686 108.38 39.3511 108.612 43.9072Z" fill="#84524D"/>
<path d="M101.7 52.7401C99.876 52.7401 98.1345 51.9523 96.7654 50.4994C96.6829 50.4121 96.6869 50.275 96.7744 50.1918C96.862 50.1097 96.9997 50.1139 97.0823 50.2012C98.443 51.6447 100.19 52.3878 102 52.2963C103.811 52.2049 105.473 51.2872 106.68 49.7127C106.754 49.6171 106.891 49.5994 106.985 49.6722C107.081 49.746 107.1 49.8821 107.026 49.9777C105.739 51.6551 103.962 52.6331 102.023 52.7318C101.915 52.737 101.808 52.7401 101.7 52.7401Z" fill="#363E44"/>
<path d="M108.611 46.3364C108.598 46.3364 108.584 46.3353 108.572 46.3331C108.453 46.3114 108.375 46.1982 108.396 46.0797C108.524 45.3749 108.571 44.6483 108.533 43.9185C108.5 43.2669 108.401 42.623 108.239 42.0041C108.208 41.8878 108.278 41.7681 108.395 41.7377C108.511 41.7083 108.63 41.7768 108.66 41.8932C108.83 42.5415 108.935 43.2147 108.968 43.8956C109.007 44.6592 108.958 45.4205 108.825 46.158C108.806 46.2635 108.714 46.3364 108.611 46.3364Z" fill="#363E44"/>
<path d="M94.7843 46.9896C94.6894 46.9896 94.6021 46.9279 94.5749 46.8314C94.373 46.1227 94.2514 45.3826 94.2132 44.6328C94.1779 43.9382 94.2145 43.2446 94.3224 42.5706C94.3414 42.4525 94.4545 42.3702 94.5719 42.3897C94.6907 42.4092 94.7717 42.5208 94.7526 42.64C94.6497 43.2837 94.6145 43.9468 94.6483 44.6111C94.6847 45.3274 94.801 46.035 94.994 46.7122C95.0268 46.8282 94.9598 46.9484 94.8441 46.982C94.824 46.9875 94.8041 46.9896 94.7843 46.9896Z" fill="#363E44"/>
<path d="M106.634 43.22C106.211 43.2059 105.434 43.3062 105.031 43.4367C104.644 43.5618 104.307 43.7894 103.946 44.1442C103.41 44.6425 103.124 45.1612 103.124 45.1612C103.124 45.1612 103.876 45.4373 104.784 45.3856C105.099 45.3672 105.321 44.9348 105.649 44.8118C106.051 44.6619 106.506 44.8075 106.789 44.5638C107.404 44.0342 107.732 43.4367 107.732 43.4367C107.732 43.4367 107.27 43.2685 106.634 43.22Z" fill="white"/>
<mask id="mask0_386_924" style="mask-type:luminance" maskUnits="userSpaceOnUse" x="103" y="43" width="5" height="3">
<path d="M103.126 45.1603C103.126 45.1603 104.49 45.6632 105.763 45.187C107.034 44.7107 107.734 43.4372 107.734 43.4372C107.734 43.4372 106.371 42.9343 105.098 43.4105C103.825 43.8868 103.126 45.1603 103.126 45.1603Z" fill="white"/>
</mask>
<g mask="url(#mask0_386_924)">
<path d="M104.532 46.1003C105.191 46.5953 106.127 46.4627 106.623 45.8048C107.118 45.1459 106.985 44.2099 106.326 43.7138C105.667 43.2188 104.732 43.3515 104.237 44.0104C103.741 44.6693 103.873 45.6043 104.532 46.1003Z" fill="#363E44"/>
</g>
<path d="M97.1415 43.22C97.5658 43.2059 98.3424 43.3062 98.7454 43.4367C99.1325 43.5618 99.4694 43.7894 99.8301 44.1442C100.366 44.6425 100.651 45.1612 100.651 45.1612C100.651 45.1612 99.8992 45.4373 98.9922 45.3856C98.6769 45.3672 98.4548 44.9348 98.1271 44.8118C97.726 44.6619 97.27 44.8075 96.9867 44.5638C96.3716 44.0342 96.0439 43.4367 96.0439 43.4367C96.0439 43.4367 96.5059 43.2685 97.1415 43.22Z" fill="white"/>
<mask id="mask1_386_924" style="mask-type:luminance" maskUnits="userSpaceOnUse" x="96" y="43" width="5" height="3">
<path d="M100.65 45.1603C100.65 45.1603 99.2868 45.6632 98.0145 45.187C96.7422 44.7107 96.043 43.4372 96.043 43.4372C96.043 43.4372 97.4067 42.9343 98.6791 43.4105C99.9517 43.8868 100.65 45.1603 100.65 45.1603Z" fill="white"/>
</mask>
<g mask="url(#mask1_386_924)">
<path d="M99.2428 46.1003C98.5835 46.5953 97.6477 46.4627 97.1524 45.8048C96.6568 45.1459 96.7893 44.2099 97.4481 43.7138C98.107 43.2188 99.0422 43.3515 99.5382 44.0104C100.034 44.6693 99.9009 45.6043 99.2428 46.1003Z" fill="#363E44"/>
</g>
<path d="M102.079 47.5292C102.014 47.5292 101.949 47.4993 101.906 47.4439C101.833 47.3489 101.851 47.2114 101.946 47.1388C102.063 47.0482 102.202 46.9138 102.205 46.7826C102.206 46.709 102.165 46.6472 102.084 46.5352C101.992 46.4072 101.877 46.2483 101.828 46.0072C101.782 45.7907 101.801 45.5636 101.883 45.33C101.923 45.2159 102.047 45.1562 102.16 45.1956C102.273 45.2361 102.334 45.3599 102.294 45.474C102.239 45.6318 102.226 45.7811 102.254 45.9187C102.285 46.0691 102.359 46.1715 102.437 46.2803C102.535 46.4157 102.645 46.5693 102.641 46.7911C102.636 47.0354 102.492 47.2679 102.212 47.4833C102.172 47.5142 102.125 47.5292 102.079 47.5292Z" fill="#363E44"/>
<path d="M100.986 48.6741C100.692 48.6741 100.252 48.6151 99.8223 48.3369C99.5495 48.161 99.3173 47.9176 99.1494 47.6332C99.0882 47.5289 99.1228 47.3961 99.2265 47.335C99.3302 47.2739 99.4636 47.3087 99.5249 47.4119C99.6583 47.6384 99.843 47.8323 100.058 47.9714C100.472 48.239 100.901 48.2495 101.12 48.2337C101.238 48.2253 101.344 48.3138 101.354 48.4328C101.363 48.5529 101.274 48.6583 101.153 48.6677C101.106 48.6709 101.049 48.6741 100.986 48.6741Z" fill="#363E44"/>
<path d="M100.822 36.1092C100.822 36.1092 113.982 23.1746 106.216 19.6088C99.5476 16.5484 100.228 33.5779 100.822 36.1092Z" fill="#363E44"/>
<path d="M100.791 35.8436C100.791 35.8436 104.888 14.1552 96.4297 15.3692C89.1673 16.4123 98.9196 34.0377 100.791 35.8436Z" fill="#363E44"/>
<path d="M99.7183 34.8792C99.7183 34.8792 95.5882 19.4343 89.6382 25.5682C84.53 30.834 97.1332 34.5952 99.7183 34.8792Z" fill="#363E44"/>
<path d="M97.7404 34.3412C97.7404 34.3412 92.0879 31.7123 91.8813 34.5917C91.7041 37.0643 97.01 34.8284 97.7404 34.3412Z" fill="#363E44"/>
<path d="M116.525 61.663C116.405 61.663 116.308 61.5658 116.308 61.4446V32.7815C116.308 32.6614 116.405 32.5642 116.525 32.5642H145.414C145.535 32.5642 145.633 32.6614 145.633 32.7815C145.633 32.9027 145.535 32.9999 145.414 32.9999H116.743V61.4446C116.743 61.5658 116.645 61.663 116.525 61.663Z" fill="#363E44"/>
<path d="M166.603 46.0394H145.469C145.348 46.0394 145.251 45.9419 145.251 45.8225V20.5656C145.251 20.4449 145.348 20.3474 145.469 20.3474H166.603C166.723 20.3474 166.82 20.4449 166.82 20.5656C166.82 20.6862 166.723 20.7837 166.603 20.7837H145.686V45.6044H166.603C166.723 45.6044 166.82 45.7018 166.82 45.8225C166.82 45.9419 166.723 46.0394 166.603 46.0394Z" fill="#363E44"/>
<path d="M152.039 35.5778H138.678V29.6186H152.039V35.5778Z" fill="#E6D0BE"/>
<path d="M188.373 28.421H167.24C167.119 28.421 167.021 28.324 167.021 28.203V13.7726C167.021 13.6516 167.119 13.5546 167.24 13.5546H188.373C188.492 13.5546 188.591 13.6516 188.591 13.7726C188.591 13.8924 188.492 13.9907 188.373 13.9907H167.456V27.9862H188.373C188.492 27.9862 188.591 28.0832 188.591 28.203C188.591 28.324 188.492 28.421 188.373 28.421Z" fill="#363E44"/>
<path d="M173.809 23.3733H160.447V17.4148H173.809V23.3733Z" fill="#F99624"/>
<path d="M201.893 16.8479H188.532V10.8893H201.893V16.8479Z" fill="#F99624"/>
<path d="M201.893 31.1839H188.532V25.2237H201.893V31.1839Z" fill="#E6D0BE"/>
<path d="M188.696 53.2063H167.562C167.442 53.2063 167.346 53.1089 167.346 52.9884V38.5568C167.346 38.4374 167.442 38.3389 167.562 38.3389H188.696C188.817 38.3389 188.914 38.4374 188.914 38.5568C188.914 38.6773 188.817 38.7746 188.696 38.7746H167.781V52.7705H188.696C188.817 52.7705 188.914 52.8679 188.914 52.9884C188.914 53.1089 188.817 53.2063 188.696 53.2063Z" fill="#363E44"/>
<path d="M174.132 48.1586H160.771V42.1994H174.132V48.1586Z" fill="#D3BBA3"/>
<path d="M202.218 41.6326H188.856V35.674H202.218V41.6326Z" fill="#F99624"/>
<path d="M202.218 55.9675H188.856V50.009H202.218V55.9675Z" fill="#D3BBA3"/>
<path d="M78.4764 65.5468H61.5663C61.4461 65.5468 61.3486 65.4502 61.3486 65.3296V49.845C61.3486 49.7245 61.4461 49.6268 61.5663 49.6268C61.6866 49.6268 61.7842 49.7245 61.7842 49.845V65.1114H78.4764C78.5966 65.1114 78.6942 65.2091 78.6942 65.3296C78.6942 65.4502 78.5966 65.5468 78.4764 65.5468Z" fill="#363E44"/>
<path d="M93.4996 148.712C92.9954 150.045 91.9349 151.107 90.6011 151.61C86.0692 153.324 81.8424 149.097 83.5556 144.565C84.0599 143.231 85.1204 142.17 86.4542 141.666C90.9862 139.953 95.2129 144.18 93.4996 148.712ZM96.9216 145.24H96.0948C96.0207 144.837 95.9152 144.445 95.7809 144.066L96.4964 143.653L95.0974 141.23L94.3804 141.644C94.1172 141.336 93.8302 141.049 93.5222 140.786L93.9361 140.069L91.5131 138.67L91.0999 139.385C90.7215 139.251 90.3296 139.145 89.9266 139.071V138.245H87.1286V139.071C86.7256 139.145 86.3338 139.251 85.9554 139.385L85.5423 138.67L83.1191 140.069L83.5332 140.786C83.225 141.049 82.9381 141.336 82.6749 141.644L81.9578 141.23L80.5588 143.653L81.2743 144.066C81.1401 144.445 81.0345 144.837 80.9605 145.24H80.1338V148.038H80.9605C81.0345 148.44 81.1401 148.832 81.2743 149.211L80.5588 149.624L81.9578 152.047L82.6749 151.633C82.9381 151.941 83.225 152.228 83.5332 152.491L83.1191 153.208L85.5423 154.607L85.9554 153.892C86.3338 154.026 86.7256 154.132 87.1286 154.206V155.032H89.9266V154.206C90.3296 154.132 90.7215 154.026 91.0999 153.892L91.5131 154.607L93.9361 153.208L93.5222 152.491C93.8302 152.228 94.1172 151.941 94.3804 151.633L95.0974 152.047L96.4964 149.624L95.7809 149.211C95.9152 148.832 96.0207 148.44 96.0948 148.038H96.9216V145.24Z" fill="white"/>
<path d="M88.5278 152.977C85.0327 152.977 82.1895 150.133 82.1895 146.639C82.1895 143.527 84.5064 140.832 87.5788 140.371C87.6962 140.355 87.8087 140.434 87.8266 140.554C87.8445 140.672 87.7626 140.784 87.6435 140.802C84.7825 141.232 82.6251 143.74 82.6251 146.639C82.6251 149.893 85.273 152.541 88.5278 152.541C91.2171 152.541 93.5667 150.725 94.2416 148.126C94.2718 148.01 94.3904 147.939 94.5071 147.97C94.6235 148 94.6935 148.119 94.6631 148.235C93.9384 151.028 91.4155 152.977 88.5278 152.977Z" fill="#F2E6DC"/>
</g>
<defs>
<clipPath id="clip0_386_924">
<rect width="256" height="187" rx="90.4762" fill="white"/>
</clipPath>
</defs>
</svg>
