<svg width="149" height="158" viewBox="0 0 149 158" fill="none" xmlns="http://www.w3.org/2000/svg">
<path d="M148.853 82.8658C148.853 123.97 115.531 157.292 74.4267 157.292C33.3227 157.292 0 123.97 0 82.8658C0 41.7618 33.3227 8.43916 74.4267 8.43916C115.531 8.43916 148.853 41.7618 148.853 82.8658Z" fill="#FDE3E2"/>
<path d="M96.4879 117.541H52.3652V73.0632H96.4879V117.541Z" fill="#F08084"/>
<path d="M112.991 41.8407C110.819 36.6474 106.381 39.1967 106.381 39.1967C108.944 15.586 96.9375 0.000686646 74.4268 0.000686646C51.9162 0.000686646 39.9095 15.586 42.4722 39.1967C42.4722 39.1967 38.0348 36.6474 35.8628 41.8407C33.6908 47.0354 37.6562 59.2167 40.1122 63.0887C42.5668 66.9593 46.9108 66.046 46.9108 66.046C46.9108 66.046 47.1948 74.2313 48.3268 77.2527C49.4602 80.274 57.3508 98.478 74.4268 98.478C91.5028 98.478 99.3935 80.274 100.527 77.2527C101.66 74.2313 101.943 65.7127 101.943 65.7127C101.943 65.7127 106.287 66.9593 108.742 63.0887C111.198 59.2167 115.163 47.0354 112.991 41.8407Z" fill="#F08084"/>
<path d="M74.4265 98.978C63.6932 98.978 53.7692 87.462 51.8892 85.154L52.6652 84.522C54.4945 86.7687 64.1452 97.978 74.4265 97.978C84.7825 97.978 94.3012 86.938 96.1038 84.7247L96.8798 85.3553C95.0265 87.63 85.2345 98.978 74.4265 98.978Z" fill="#D34B5B"/>
<path d="M46.4118 66.0786L45.9932 59.7919L46.9905 59.7253L47.4092 66.0119L46.4118 66.0786Z" fill="#D34B5B"/>
<path d="M102.441 65.7524L101.444 65.6725L101.921 59.7191L102.919 59.7991L102.441 65.7524Z" fill="#D34B5B"/>
<path d="M38.8145 53.5581C37.3718 48.0154 37.5985 44.6088 39.5251 42.8368L40.2025 43.5728C38.5998 45.0475 38.4611 48.2315 39.7825 53.3075L38.8145 53.5581Z" fill="#D34B5B"/>
<path d="M110.264 53.5581L109.295 53.3075C110.616 48.2301 110.48 45.0461 108.876 43.5728L109.553 42.8368C111.48 44.6075 111.707 48.0141 110.264 53.5581Z" fill="#D34B5B"/>
<path d="M110.696 17.228C102.361 10.4947 94.0361 3.78537 87.6015 2.1427C83.7361 0.741371 79.3308 2.67029e-05 74.4268 2.67029e-05C59.1268 2.67029e-05 46.3268 4.70935 44.3601 19.2267C37.3855 22.1694 38.6721 33.5414 40.1468 38.5747C40.1468 38.5747 41.3281 38.552 42.4721 39.196C45.4508 41.132 46.1308 46.3987 45.6628 51.6147C52.3441 51.6494 47.2921 30.0894 52.5321 24.872C72.3655 37.3694 98.8415 30.78 98.8415 30.78C99.5921 38.9187 98.4935 51.6387 103.188 51.6147C102.725 46.6307 102.711 41.168 106.379 39.196L106.381 39.192C106.893 34.4667 106.813 30.0694 106.191 26.048C108.505 23.8694 110.519 20.9414 110.696 17.228Z" fill="#4A1D48"/>
<path d="M57.3507 39.1604C50.276 39.1604 44.52 44.9164 44.52 51.9911C44.52 59.0671 50.276 64.8218 57.3507 64.8218C64.4267 64.8218 70.1813 59.0671 70.1813 51.9911C70.1813 44.9164 64.4267 39.1604 57.3507 39.1604ZM57.3507 65.8218C49.7253 65.8218 43.52 59.6178 43.52 51.9911C43.52 44.3658 49.7253 38.1604 57.3507 38.1604C64.9773 38.1604 71.1813 44.3658 71.1813 51.9911C71.1813 59.6178 64.9773 65.8218 57.3507 65.8218Z" fill="white"/>
<path d="M91.5024 39.1604C84.4264 39.1604 78.6704 44.9164 78.6704 51.9911C78.6704 59.0671 84.4264 64.8218 91.5024 64.8218C98.5771 64.8218 104.333 59.0671 104.333 51.9911C104.333 44.9164 98.5771 39.1604 91.5024 39.1604ZM91.5024 65.8218C83.8757 65.8218 77.6704 59.6178 77.6704 51.9911C77.6704 44.3658 83.8757 38.1604 91.5024 38.1604C99.1277 38.1604 105.333 44.3658 105.333 51.9911C105.333 59.6178 99.1277 65.8218 91.5024 65.8218Z" fill="white"/>
<path d="M78.2599 49.0005C76.8439 47.6885 75.2146 47.0445 73.6799 47.1898C72.4586 47.3045 71.4119 47.9058 70.6559 48.9312L69.8506 48.3365C70.7693 47.0952 72.0959 46.3338 73.5866 46.1938C75.4026 46.0205 77.3119 46.7592 78.9399 48.2672L78.2599 49.0005Z" fill="white"/>
<path d="M138.036 121.524C117.02 112.15 96.5387 108.824 96.5387 108.824C86.028 119.784 61.656 119.938 52.3654 108.824C52.3654 108.824 31.832 112.15 10.8174 121.524C23.88 142.971 47.48 157.292 74.4267 157.292C101.373 157.292 124.973 142.971 138.036 121.524Z" fill="#AF6C9C"/>
<path d="M73.7224 123.56C61.5344 123.56 50.9678 118.549 44.2251 110.733L44.9824 110.08C57.1478 124.183 82.1304 128.879 106.338 110.567L106.944 111.363C95.5984 119.944 84.0744 123.56 73.7224 123.56Z" fill="#B34C96"/>
</svg>
