<svg width="149" height="160" viewBox="0 0 149 160" fill="none" xmlns="http://www.w3.org/2000/svg">
<path d="M148.852 85.0255C148.852 126.129 115.531 159.452 74.4265 159.452C33.3219 159.452 0 126.129 0 85.0255C0 43.9215 33.3219 10.5988 74.4265 10.5988C115.531 10.5988 148.852 43.9215 148.852 85.0255Z" fill="#FDE3E2"/>
<path d="M123.116 124.321C144.126 110.073 131.591 86.6773 112.551 55.3613C109.802 50.8386 108.04 45.8133 106.979 40.6293C103.874 25.4506 90.4429 14.032 74.3457 14.032C58.1181 14.032 44.6005 25.6373 41.639 41C40.6093 46.344 38.9123 51.5426 36.3691 56.3546C18.8598 89.4786 1.72328 116.168 26.7399 124.321H123.116Z" fill="#4A1D48"/>
<path d="M91.8201 119.702H56.9561V75.2248H91.8201V119.702Z" fill="#F08084"/>
<path d="M138.383 123.075C121.972 116.179 92.0298 110.988 92.0298 110.988C80.5319 120.661 65.9997 120.599 56.9565 110.988C56.9565 110.988 26.6413 115.475 9.52979 121.471C21.7569 143.195 44.5622 158.163 70.9688 159.368C72.1522 159.403 73.3309 159.451 74.5246 159.452C101.679 159.413 125.415 144.828 138.383 123.075Z" fill="#C2955C"/>
<path d="M56.9565 105.929L50.0898 112.094C50.0898 112.094 54.097 129.38 62.2856 129.693C70.4736 130.006 74.346 118.204 74.346 118.204C66.5252 116.112 60.7304 112.018 56.9565 105.929Z" fill="white"/>
<path d="M91.8165 105.929L98.6832 112.094C98.6832 112.094 94.6752 129.38 86.4872 129.693C78.2992 130.006 74.4268 118.204 74.4268 118.204C82.247 116.112 88.0432 112.018 91.8165 105.929Z" fill="white"/>
<path d="M90.3884 16C90.3884 24.836 83.2251 32 74.3887 32C65.5521 32 58.3887 24.836 58.3887 16C58.3887 7.16267 65.5521 0 74.3887 0C83.2251 0 90.3884 7.16267 90.3884 16Z" fill="#4A1D48"/>
<path d="M74.3456 21.3667C51.8717 21.3933 46.7592 38.2253 47.2289 55.172C47.2285 67.3907 46.3685 71.352 47.5018 74.3733C48.1337 78.676 56.8712 100.639 74.3456 100.639C91.8201 100.639 99.8148 79.8347 101.355 74.3733C102.488 71.352 101.463 67.3907 101.463 55.172C101.932 38.2253 96.8201 21.3933 74.3456 21.3667Z" fill="#F08084"/>
<path d="M74.3455 101.14C67.8003 101.14 61.8237 98.1783 56.5815 92.341L57.3263 91.673C62.3706 97.2903 68.0955 100.14 74.3455 100.14C80.7326 100.14 86.4867 97.2983 91.4467 91.697L92.1947 92.3596C87.0361 98.185 81.0305 101.14 74.3455 101.14Z" fill="#D34B5B"/>
<path d="M48.2169 55.567C48.2169 55.567 43.6997 49.7389 39.0565 53.1483C34.4131 56.5576 38.9309 75.9136 48.2169 72.5043C57.5033 69.095 48.2169 55.567 48.2169 55.567Z" fill="#F08084"/>
<path d="M100.56 55.567C100.56 55.567 105.077 49.7389 109.72 53.1483C114.364 56.5576 109.845 75.9136 100.56 72.5043C91.2734 69.095 100.56 55.567 100.56 55.567Z" fill="#F08084"/>
<path d="M46.6374 72.9736L45.4775 64.6549L46.4671 64.5163L47.627 72.8363L46.6374 72.9736Z" fill="#D34B5B"/>
<path d="M102.387 72.9502L101.391 72.8582L102.164 64.5382L103.16 64.6315L102.387 72.9502Z" fill="#D34B5B"/>
<path d="M41.3718 63.2002C40.3447 60.2069 40.2926 58.0722 41.2171 56.8549C42.0019 55.8202 43.179 55.8788 43.2233 55.8788L43.166 56.8775L43.1947 56.3775L43.1712 56.8775C43.1311 56.8748 42.4593 56.8575 42.0035 57.4722C41.5229 58.1189 41.1868 59.5815 42.3171 62.8762L41.3718 63.2002Z" fill="#D34B5B"/>
<path d="M107.779 63.2002L106.834 62.8762C107.97 59.5642 107.626 58.1029 107.139 57.4589C106.679 56.8549 105.996 56.8748 105.986 56.8775L105.928 55.8788C105.972 55.8802 107.15 55.8202 107.935 56.8548C108.859 58.0722 108.807 60.2069 107.779 63.2002Z" fill="#D34B5B"/>
<path d="M107.619 71.7174C107.619 72.8601 106.691 73.7881 105.548 73.7881C104.404 73.7881 103.478 72.8601 103.478 71.7174C103.478 70.5734 104.404 69.6467 105.548 69.6467C106.691 69.6467 107.619 70.5734 107.619 71.7174Z" fill="white"/>
<path d="M45.5006 71.7174C45.5006 72.8601 44.5734 73.7881 43.4302 73.7881C42.2864 73.7881 41.3594 72.8601 41.3594 71.7174C41.3594 70.5734 42.2864 69.6467 43.4302 69.6467C44.5734 69.6467 45.5006 70.5734 45.5006 71.7174Z" fill="white"/>
<path d="M46.1157 47.0396C63.9455 50.8089 82.7324 51.0969 102.662 47.0396C102.662 47.0396 103.032 19.5169 75.1439 18.6049C47.2548 17.6916 46.1157 47.0396 46.1157 47.0396Z" fill="#4A1D48"/>
<path d="M89.9925 18.4922C79.609 14.4335 69.0793 14.4335 58.6991 18.4922L58.3345 17.5615C68.9595 13.4082 79.7314 13.4082 90.3565 17.5615L89.9925 18.4922Z" fill="#712973"/>
<path d="M103.5 46.667C102.76 38.871 100.026 32.0376 95.3735 26.3563L96.1469 25.723C100.927 31.5603 103.736 38.5763 104.496 46.5723L103.5 46.667Z" fill="#712973"/>
<path d="M46.0036 46.667L45.0088 46.5723C45.7676 38.5763 48.5776 31.5603 53.3577 25.723L54.1312 26.3563C49.4787 32.0376 46.7443 38.871 46.0036 46.667Z" fill="#712973"/>
<path d="M55.0541 48.5889L54.0566 48.5089C54.415 44.1302 55.3134 39.6955 56.7276 35.3275L57.6781 35.6355C56.2874 39.9302 55.4046 44.2889 55.0541 48.5889Z" fill="#712973"/>
<path d="M90.8882 49.0303L89.8882 48.9956C89.9896 46.0423 89.5162 42.5276 88.4829 38.5489L89.4509 38.2983C90.5082 42.3689 90.9922 45.9796 90.8882 49.0303Z" fill="#712973"/>
<path d="M87.511 35.208C86.775 32.9133 86.143 31.392 86.1377 31.376L87.059 30.9907C87.087 31.0547 87.7137 32.564 88.4644 34.9027L87.511 35.208Z" fill="#712973"/>
</svg>
