<svg width="155" height="181" viewBox="0 0 155 181" fill="none" xmlns="http://www.w3.org/2000/svg">
<path d="M154.815 103.355C154.815 146.106 120.159 180.764 77.4071 180.764C34.6563 180.764 0 146.106 0 103.355C0 60.6045 34.6563 25.9468 77.4071 25.9468C120.159 25.9468 154.815 60.6045 154.815 103.355Z" fill="#FDE3E2"/>
<path d="M98.0765 139.419H57.1216V93.1601H98.0765V139.419Z" fill="#F08084"/>
<path d="M143.756 143.563C121.9 133.812 98.0754 130.354 98.0754 130.354C87.1437 141.753 66.7834 141.912 57.1219 130.354C57.1219 130.354 33.2975 133.812 11.4409 143.563C25.0269 165.869 49.5724 180.764 77.5986 180.764C105.625 180.764 130.17 165.869 143.756 143.563Z" fill="white"/>
<path d="M102.528 131.119V176.658C119.84 170.773 134.398 158.926 143.756 143.562C127.624 136.365 110.432 132.6 102.528 131.119Z" fill="#7C7872"/>
<path d="M52.5887 131.134C44.6481 132.626 27.519 136.39 11.4424 143.562C20.7849 158.902 35.3111 170.737 52.5887 176.632V131.134Z" fill="#7C7872"/>
<path d="M77.0187 144.206C76.8898 144.206 76.7608 144.205 76.6319 144.203C66.0523 144.092 57.1258 139.429 52.146 131.409L53.0293 130.861C57.8178 138.572 66.4254 143.055 76.6429 143.163C87.2849 143.255 97.0754 138.559 102.091 130.852L102.964 131.419C97.8159 139.328 87.9006 144.206 77.0187 144.206Z" fill="#F3B1B3"/>
<path d="M117.709 68.5176C115.45 63.1162 110.833 65.7676 110.833 65.7676C113.499 41.211 101.011 25.0013 77.5984 25.0013C54.1859 25.0013 41.6982 41.211 44.3635 65.7676C44.3635 65.7676 39.7484 63.1162 37.4894 68.5176C35.2304 73.9203 39.356 86.5897 41.909 90.6168C44.462 94.6425 48.331 92.9396 48.331 92.9396C48.331 92.9396 49.2754 102.206 50.4542 105.348C51.6315 108.492 64.9887 122.942 68.9174 125.152C74.0691 128.184 81.6561 128.184 86.2795 125.152C90.2082 122.942 103.565 108.492 104.744 105.348C105.923 102.206 106.846 92.7774 106.846 92.7774C106.846 92.7774 110.735 94.6425 113.288 90.6168C115.842 86.5897 119.966 73.9203 117.709 68.5176Z" fill="#F08084"/>
<path d="M77.8038 127.931C74.5851 127.931 71.2972 127.156 68.654 125.6C66.2744 124.26 60.8036 118.788 56.7349 114.271L57.5059 113.575C61.6509 118.172 66.9871 123.468 69.1727 124.698C74.1566 127.631 81.5397 127.635 85.9953 124.716C88.2058 123.471 93.5448 118.174 97.6912 113.577L98.4636 114.273C94.3893 118.791 88.92 124.263 86.5348 125.605C84.1717 127.154 81.0211 127.931 77.8038 127.931Z" fill="#D34B5B"/>
<path d="M47.814 92.9972L47.165 87.2117L48.1995 87.0952L48.8485 92.8807L47.814 92.9972Z" fill="#D34B5B"/>
<path d="M107.365 92.8307L106.329 92.7225L106.917 87.0992L107.952 87.2074L107.365 92.8307Z" fill="#D34B5B"/>
<path d="M40.507 80.6627C40.2879 79.8667 38.4477 72.8276 40.9882 70.9027C41.8272 70.355 42.5164 70.4104 42.9463 70.5519C44.2401 70.9721 44.885 72.571 44.9557 72.7513L43.9836 73.1243C43.8421 72.761 43.3235 71.7653 42.6245 71.5407C42.3042 71.438 41.9631 71.506 41.5873 71.7542C40.1228 72.8636 40.758 77.6423 41.5082 80.3881L40.507 80.6627Z" fill="#D34B5B"/>
<path d="M114.691 80.6627L113.689 80.3881C114.439 77.6423 115.074 72.8636 113.581 71.732C113.232 71.5074 112.894 71.4367 112.571 71.5421C111.738 71.8125 111.219 73.1118 111.215 73.1243L110.243 72.7513C110.313 72.571 110.957 70.9721 112.251 70.5519C112.683 70.4118 113.368 70.355 114.18 70.882C116.749 72.8276 114.909 79.8667 114.691 80.6627Z" fill="#D34B5B"/>
<path d="M75.8073 132.85C84.0715 133.051 92.1605 127.148 99.2031 115.774C104.496 107.225 107.381 98.5031 107.412 98.4162L107.433 98.3456L107.426 98.2746C107.011 94.941 106.935 91.31 107.189 87.1766L106.556 87.0776C106.523 87.2091 103.124 103.252 100.669 109.391C96.4434 105.673 91.1438 103.784 84.4845 103.621C78.2738 103.469 70.1174 102.166 63.8048 103.45C60.3888 104.145 58.876 106.315 55.7843 106.727C51.3896 102.37 49.594 94.8385 48.319 89.6197L47.6869 89.6674C47.484 91.7969 47.1909 93.7481 46.7903 95.6257L46.7755 95.6954L46.7899 95.7656C46.8107 95.8543 48.9454 104.882 53.5113 113.904C59.5889 125.909 67.2045 132.455 75.5403 132.841C75.6306 132.843 75.717 132.848 75.8073 132.85Z" fill="#4A1D48"/>
<path d="M111 21.5001C111 21.5001 111.691 31.9867 98.5 29C92.4617 24.6654 84 18.5 63.9038 23.0005C48.4333 23.0005 64.0003 22.9883 63.9038 23.0005C32.7126 26.8814 38.8478 70.9051 38.8478 70.9051C40.2156 67.4987 43.7192 65.2113 45.4866 65.921C48.0688 72.0363 48.4333 79.2558 48.4333 79.2558L48.6029 63.0098L52.0915 45.1722C52.0915 45.1722 90.6519 56.3105 103.56 47.8869L106.461 60.7353L106.994 77.6569C106.994 77.6569 116.828 49.4929 110.853 35.0912C114.125 28.0565 113.449 27.8807 111 21.5001Z" fill="#4A1D48"/>
<path d="M60.3507 62.1611C53.276 62.1611 47.52 67.9171 47.52 74.9917C47.52 82.0677 53.276 87.8224 60.3507 87.8224C67.4267 87.8224 73.1813 82.0677 73.1813 74.9917C73.1813 67.9171 67.4267 62.1611 60.3507 62.1611ZM60.3507 88.8224C52.7253 88.8224 46.52 82.6184 46.52 74.9917C46.52 67.3664 52.7253 61.1611 60.3507 61.1611C67.9773 61.1611 74.1813 67.3664 74.1813 74.9917C74.1813 82.6184 67.9773 88.8224 60.3507 88.8224Z" fill="white"/>
<path d="M94.5024 62.1611C87.4264 62.1611 81.6704 67.9171 81.6704 74.9917C81.6704 82.0677 87.4264 87.8224 94.5024 87.8224C101.577 87.8224 107.333 82.0677 107.333 74.9917C107.333 67.9171 101.577 62.1611 94.5024 62.1611ZM94.5024 88.8224C86.8757 88.8224 80.6704 82.6184 80.6704 74.9917C80.6704 67.3664 86.8757 61.1611 94.5024 61.1611C102.128 61.1611 108.333 67.3664 108.333 74.9917C108.333 82.6184 102.128 88.8224 94.5024 88.8224Z" fill="white"/>
<path d="M81.2599 72.0011C79.8439 70.6891 78.2146 70.0451 76.6799 70.1904C75.4586 70.3051 74.4119 70.9064 73.6559 71.9318L72.8506 71.3371C73.7693 70.0958 75.0959 69.3344 76.5866 69.1944C78.4026 69.0211 80.3119 69.7598 81.9399 71.2678L81.2599 72.0011Z" fill="white"/>
</svg>
